<svg xmlns="http://www.w3.org/2000/svg" xmlns:xlink="http://www.w3.org/1999/xlink" width="50" zoomAndPan="magnify" viewBox="0 0 37.5 37.499999" height="50" preserveAspectRatio="xMidYMid meet" version="1.0"><defs><g/><clipPath id="id1"><path d="M 11 27 L 26 27 L 26 33.75 L 11 33.75 Z M 11 27 " clip-rule="nonzero"/></clipPath><clipPath id="id2"><path d="M 11 33 L 26 33 L 26 33.75 L 11 33.75 Z M 11 33 " clip-rule="nonzero"/></clipPath><clipPath id="id3"><path d="M 1.847656 3.75 L 35.597656 3.75 L 35.597656 25 L 1.847656 25 Z M 1.847656 3.75 " clip-rule="nonzero"/></clipPath><clipPath id="id4"><path d="M 1.847656 24 L 35.597656 24 L 35.597656 28 L 1.847656 28 Z M 1.847656 24 " clip-rule="nonzero"/></clipPath><clipPath id="id5"><path d="M 27.730469 7.660156 L 33.730469 7.660156 L 33.730469 9.910156 L 27.730469 9.910156 Z M 27.730469 7.660156 " clip-rule="nonzero"/></clipPath><clipPath id="id6"><path d="M 23.574219 7.660156 L 26.574219 7.660156 L 26.574219 9.910156 L 23.574219 9.910156 Z M 23.574219 7.660156 " clip-rule="nonzero"/></clipPath><clipPath id="id7"><path d="M 23.574219 11.191406 L 34.074219 11.191406 L 34.074219 13.441406 L 23.574219 13.441406 Z M 23.574219 11.191406 " clip-rule="nonzero"/></clipPath><clipPath id="id8"><path d="M 27.730469 15.097656 L 33.730469 15.097656 L 33.730469 17.347656 L 27.730469 17.347656 Z M 27.730469 15.097656 " clip-rule="nonzero"/></clipPath><clipPath id="id9"><path d="M 23.574219 15.097656 L 26.574219 15.097656 L 26.574219 17.347656 L 23.574219 17.347656 Z M 23.574219 15.097656 " clip-rule="nonzero"/></clipPath><clipPath id="id10"><path d="M 23.574219 18.625 L 34.074219 18.625 L 34.074219 20.875 L 23.574219 20.875 Z M 23.574219 18.625 " clip-rule="nonzero"/></clipPath></defs><g clip-path="url(#id1)"><path fill="#bbbaba" d="M 15.757812 27.351562 L 14.886719 30.769531 L 11.96875 33.222656 L 11.96875 33.746094 L 25.480469 33.746094 L 25.480469 33.222656 L 22.558594 30.769531 L 21.691406 27.351562 L 18.722656 27.308594 Z M 15.757812 27.351562 " fill-opacity="1" fill-rule="evenodd"/></g><g clip-path="url(#id2)"><path fill="#cfcfcf" d="M 11.96875 33.222656 L 25.480469 33.222656 L 25.480469 33.746094 L 11.96875 33.746094 Z M 11.96875 33.222656 " fill-opacity="1" fill-rule="evenodd"/></g><g clip-path="url(#id3)"><path fill="#292f33" d="M 3.648438 3.753906 L 33.796875 3.753906 C 34.789062 3.753906 35.597656 4.566406 35.597656 5.558594 L 35.597656 24.152344 L 1.847656 24.152344 L 1.847656 5.558594 C 1.847656 4.566406 2.660156 3.753906 3.648438 3.753906 Z M 3.648438 3.753906 " fill-opacity="1" fill-rule="evenodd"/></g><path fill="#292f33" d="M 3.070312 22.929688 L 34.375 22.929688 L 34.375 5.558594 C 34.375 5.242188 34.113281 4.976562 33.796875 4.976562 L 3.648438 4.976562 C 3.332031 4.976562 3.070312 5.242188 3.070312 5.558594 Z M 3.070312 22.929688 " fill-opacity="1" fill-rule="evenodd"/><g clip-path="url(#id4)"><path fill="#cfcfcf" d="M 35.597656 24.152344 L 35.597656 26.125 C 35.597656 27.117188 34.707031 27.929688 33.613281 27.929688 L 3.835938 27.929688 C 2.742188 27.929688 1.847656 27.117188 1.847656 26.125 L 1.847656 24.152344 Z M 35.597656 24.152344 " fill-opacity="1" fill-rule="evenodd"/></g><path fill="#d9d9dd" d="M 19.390625 25.859375 C 19.390625 26.042969 19.328125 26.203125 19.195312 26.332031 C 19.066406 26.464844 18.90625 26.527344 18.722656 26.527344 C 18.539062 26.527344 18.382812 26.464844 18.25 26.332031 C 18.121094 26.203125 18.054688 26.042969 18.054688 25.859375 C 18.054688 25.675781 18.121094 25.519531 18.25 25.386719 C 18.382812 25.257812 18.539062 25.191406 18.722656 25.191406 C 18.90625 25.191406 19.066406 25.257812 19.195312 25.386719 C 19.328125 25.519531 19.390625 25.675781 19.390625 25.859375 Z M 19.390625 25.859375 " fill-opacity="1" fill-rule="nonzero"/><g fill="#000000" fill-opacity="1"><g transform="translate(15.497475, 7.07366)"><g><path d="M 0.0625 0 L 0.0625 -0.4375 L 0.09375 -0.4375 L 0.09375 0 Z M 0.0625 0 "/></g></g><g transform="translate(15.650538, 7.07366)"><g><path d="M 0.140625 -0.015625 C 0.160156 -0.015625 0.175781 -0.0195312 0.1875 -0.03125 L 0.1875 0 C 0.175781 0.0078125 0.160156 0.015625 0.140625 0.015625 C 0.109375 0.015625 0.0859375 0.0078125 0.078125 0 C 0.0664062 -0.0195312 0.0625 -0.046875 0.0625 -0.078125 L 0.0625 -0.296875 L 0.015625 -0.296875 L 0.015625 -0.3125 L 0.0625 -0.328125 L 0.0625 -0.40625 L 0.078125 -0.40625 L 0.078125 -0.328125 L 0.1875 -0.328125 L 0.1875 -0.296875 L 0.078125 -0.296875 L 0.078125 -0.09375 C 0.078125 -0.0703125 0.0820312 -0.0507812 0.09375 -0.03125 C 0.101562 -0.0195312 0.117188 -0.015625 0.140625 -0.015625 Z M 0.140625 -0.015625 "/></g></g><g transform="translate(15.854028, 7.07366)"><g><path d="M 0.1875 0.015625 C 0.132812 0.015625 0.09375 0 0.0625 -0.03125 C 0.0390625 -0.0625 0.03125 -0.101562 0.03125 -0.15625 C 0.03125 -0.207031 0.0390625 -0.25 0.0625 -0.28125 C 0.09375 -0.3125 0.132812 -0.328125 0.1875 -0.328125 C 0.21875 -0.328125 0.242188 -0.3125 0.265625 -0.28125 C 0.285156 -0.257812 0.296875 -0.226562 0.296875 -0.1875 L 0.296875 -0.15625 L 0.0625 -0.15625 C 0.0625 -0.113281 0.0703125 -0.078125 0.09375 -0.046875 C 0.113281 -0.0234375 0.144531 -0.015625 0.1875 -0.015625 C 0.195312 -0.015625 0.207031 -0.015625 0.21875 -0.015625 C 0.238281 -0.0234375 0.257812 -0.03125 0.28125 -0.03125 L 0.28125 -0.015625 C 0.257812 -0.00390625 0.238281 0 0.21875 0 C 0.207031 0.0078125 0.195312 0.015625 0.1875 0.015625 Z M 0.1875 -0.296875 C 0.15625 -0.296875 0.128906 -0.285156 0.109375 -0.265625 C 0.0859375 -0.242188 0.0703125 -0.21875 0.0625 -0.1875 L 0.265625 -0.1875 C 0.265625 -0.21875 0.253906 -0.242188 0.234375 -0.265625 C 0.222656 -0.285156 0.207031 -0.296875 0.1875 -0.296875 Z M 0.1875 -0.296875 "/></g></g><g transform="translate(16.187444, 7.07366)"><g><path d="M 0.453125 0 L 0.453125 -0.203125 C 0.453125 -0.234375 0.445312 -0.253906 0.4375 -0.265625 C 0.425781 -0.285156 0.40625 -0.296875 0.375 -0.296875 C 0.34375 -0.296875 0.316406 -0.285156 0.296875 -0.265625 C 0.285156 -0.253906 0.28125 -0.226562 0.28125 -0.1875 L 0.28125 0 L 0.25 0 L 0.25 -0.21875 C 0.25 -0.269531 0.226562 -0.296875 0.1875 -0.296875 C 0.15625 -0.296875 0.128906 -0.285156 0.109375 -0.265625 C 0.0859375 -0.253906 0.078125 -0.226562 0.078125 -0.1875 L 0.078125 0 L 0.0625 0 L 0.0625 -0.328125 L 0.078125 -0.328125 L 0.078125 -0.28125 C 0.0976562 -0.289062 0.113281 -0.300781 0.125 -0.3125 C 0.144531 -0.320312 0.164062 -0.328125 0.1875 -0.328125 C 0.226562 -0.328125 0.257812 -0.3125 0.28125 -0.28125 C 0.289062 -0.289062 0.300781 -0.300781 0.3125 -0.3125 C 0.332031 -0.320312 0.351562 -0.328125 0.375 -0.328125 C 0.414062 -0.328125 0.441406 -0.316406 0.453125 -0.296875 C 0.472656 -0.285156 0.484375 -0.253906 0.484375 -0.203125 L 0.484375 0 Z M 0.453125 0 "/></g></g><g transform="translate(16.723758, 7.07366)"><g/></g><g transform="translate(16.881567, 7.07366)"><g><path d="M 0.203125 0 L 0.171875 0 L 0.171875 -0.3125 C 0.171875 -0.34375 0.175781 -0.375 0.1875 -0.40625 C 0.175781 -0.40625 0.164062 -0.398438 0.15625 -0.390625 C 0.15625 -0.390625 0.128906 -0.367188 0.078125 -0.328125 L 0.0625 -0.34375 L 0.1875 -0.4375 L 0.203125 -0.4375 Z M 0.203125 0 "/></g></g></g><g fill="#000000" fill-opacity="1"><g transform="translate(15.68732, 7.883667)"><g><path d="M 0.296875 0 L 0.03125 0 L 0.03125 -0.03125 L 0.15625 -0.140625 C 0.1875 -0.179688 0.207031 -0.207031 0.21875 -0.21875 C 0.226562 -0.238281 0.234375 -0.253906 0.234375 -0.265625 C 0.242188 -0.285156 0.25 -0.304688 0.25 -0.328125 C 0.25 -0.347656 0.238281 -0.367188 0.21875 -0.390625 C 0.207031 -0.410156 0.1875 -0.421875 0.15625 -0.421875 C 0.125 -0.421875 0.09375 -0.40625 0.0625 -0.375 L 0.046875 -0.40625 C 0.078125 -0.425781 0.113281 -0.4375 0.15625 -0.4375 C 0.195312 -0.4375 0.226562 -0.425781 0.25 -0.40625 C 0.269531 -0.382812 0.28125 -0.359375 0.28125 -0.328125 C 0.28125 -0.296875 0.273438 -0.265625 0.265625 -0.234375 C 0.253906 -0.210938 0.226562 -0.179688 0.1875 -0.140625 L 0.078125 -0.03125 L 0.296875 -0.03125 Z M 0.296875 0 "/></g></g><g transform="translate(16.034085, 7.883667)"><g><path d="M 0.3125 -0.21875 C 0.3125 -0.144531 0.300781 -0.0859375 0.28125 -0.046875 C 0.257812 -0.00390625 0.222656 0.015625 0.171875 0.015625 C 0.128906 0.015625 0.09375 -0.00390625 0.0625 -0.046875 C 0.0390625 -0.0859375 0.03125 -0.144531 0.03125 -0.21875 C 0.03125 -0.289062 0.0390625 -0.34375 0.0625 -0.375 C 0.09375 -0.414062 0.128906 -0.4375 0.171875 -0.4375 C 0.210938 -0.4375 0.242188 -0.414062 0.265625 -0.375 C 0.296875 -0.34375 0.3125 -0.289062 0.3125 -0.21875 Z M 0.0625 -0.21875 C 0.0625 -0.144531 0.0703125 -0.09375 0.09375 -0.0625 C 0.113281 -0.03125 0.140625 -0.015625 0.171875 -0.015625 C 0.210938 -0.015625 0.238281 -0.03125 0.25 -0.0625 C 0.269531 -0.101562 0.28125 -0.15625 0.28125 -0.21875 C 0.28125 -0.28125 0.269531 -0.328125 0.25 -0.359375 C 0.238281 -0.398438 0.210938 -0.421875 0.171875 -0.421875 C 0.128906 -0.421875 0.0976562 -0.398438 0.078125 -0.359375 C 0.0664062 -0.328125 0.0625 -0.28125 0.0625 -0.21875 Z M 0.0625 -0.21875 "/></g></g><g transform="translate(16.380849, 7.883667)"><g><path d="M 0.0625 -0.296875 C 0.0625 -0.265625 0.0625 -0.238281 0.0625 -0.21875 C 0.0703125 -0.195312 0.0859375 -0.1875 0.109375 -0.1875 C 0.148438 -0.1875 0.171875 -0.222656 0.171875 -0.296875 C 0.171875 -0.335938 0.164062 -0.367188 0.15625 -0.390625 C 0.144531 -0.410156 0.128906 -0.421875 0.109375 -0.421875 C 0.0859375 -0.421875 0.0703125 -0.410156 0.0625 -0.390625 C 0.0625 -0.367188 0.0625 -0.335938 0.0625 -0.296875 Z M 0.203125 -0.296875 C 0.203125 -0.253906 0.191406 -0.222656 0.171875 -0.203125 C 0.160156 -0.179688 0.140625 -0.171875 0.109375 -0.171875 C 0.0859375 -0.171875 0.0664062 -0.179688 0.046875 -0.203125 C 0.0351562 -0.222656 0.03125 -0.253906 0.03125 -0.296875 C 0.03125 -0.347656 0.0351562 -0.382812 0.046875 -0.40625 C 0.0664062 -0.425781 0.0859375 -0.4375 0.109375 -0.4375 C 0.140625 -0.4375 0.160156 -0.425781 0.171875 -0.40625 C 0.191406 -0.382812 0.203125 -0.347656 0.203125 -0.296875 Z M 0.3125 -0.140625 C 0.3125 -0.0976562 0.316406 -0.0664062 0.328125 -0.046875 C 0.335938 -0.0234375 0.351562 -0.015625 0.375 -0.015625 C 0.40625 -0.015625 0.421875 -0.0546875 0.421875 -0.140625 C 0.421875 -0.203125 0.40625 -0.234375 0.375 -0.234375 C 0.351562 -0.234375 0.335938 -0.222656 0.328125 -0.203125 C 0.316406 -0.191406 0.3125 -0.171875 0.3125 -0.140625 Z M 0.453125 -0.140625 C 0.453125 -0.0859375 0.445312 -0.046875 0.4375 -0.015625 C 0.425781 0.00390625 0.40625 0.015625 0.375 0.015625 C 0.34375 0.015625 0.316406 0.00390625 0.296875 -0.015625 C 0.285156 -0.046875 0.28125 -0.0859375 0.28125 -0.140625 C 0.28125 -0.179688 0.285156 -0.210938 0.296875 -0.234375 C 0.316406 -0.253906 0.34375 -0.265625 0.375 -0.265625 C 0.394531 -0.265625 0.410156 -0.25 0.421875 -0.21875 C 0.441406 -0.195312 0.453125 -0.171875 0.453125 -0.140625 Z M 0.375 -0.4375 L 0.140625 0 L 0.109375 0 L 0.34375 -0.4375 Z M 0.375 -0.4375 "/></g></g></g><g fill="#000000" fill-opacity="1"><g transform="translate(18.719539, 16.990143)"><g><path d="M 0.0625 0 L 0.0625 -0.4375 L 0.09375 -0.4375 L 0.09375 0 Z M 0.0625 0 "/></g></g><g transform="translate(18.872602, 16.990143)"><g><path d="M 0.140625 -0.015625 C 0.160156 -0.015625 0.175781 -0.0195312 0.1875 -0.03125 L 0.1875 0 C 0.175781 0.0078125 0.160156 0.015625 0.140625 0.015625 C 0.109375 0.015625 0.0859375 0.0078125 0.078125 0 C 0.0664062 -0.0195312 0.0625 -0.046875 0.0625 -0.078125 L 0.0625 -0.296875 L 0.015625 -0.296875 L 0.015625 -0.3125 L 0.0625 -0.328125 L 0.0625 -0.40625 L 0.078125 -0.40625 L 0.078125 -0.328125 L 0.1875 -0.328125 L 0.1875 -0.296875 L 0.078125 -0.296875 L 0.078125 -0.09375 C 0.078125 -0.0703125 0.0820312 -0.0507812 0.09375 -0.03125 C 0.101562 -0.0195312 0.117188 -0.015625 0.140625 -0.015625 Z M 0.140625 -0.015625 "/></g></g><g transform="translate(19.076092, 16.990143)"><g><path d="M 0.1875 0.015625 C 0.132812 0.015625 0.09375 0 0.0625 -0.03125 C 0.0390625 -0.0625 0.03125 -0.101562 0.03125 -0.15625 C 0.03125 -0.207031 0.0390625 -0.25 0.0625 -0.28125 C 0.09375 -0.3125 0.132812 -0.328125 0.1875 -0.328125 C 0.21875 -0.328125 0.242188 -0.3125 0.265625 -0.28125 C 0.285156 -0.257812 0.296875 -0.226562 0.296875 -0.1875 L 0.296875 -0.15625 L 0.0625 -0.15625 C 0.0625 -0.113281 0.0703125 -0.078125 0.09375 -0.046875 C 0.113281 -0.0234375 0.144531 -0.015625 0.1875 -0.015625 C 0.195312 -0.015625 0.207031 -0.015625 0.21875 -0.015625 C 0.238281 -0.0234375 0.257812 -0.03125 0.28125 -0.03125 L 0.28125 -0.015625 C 0.257812 -0.00390625 0.238281 0 0.21875 0 C 0.207031 0.0078125 0.195312 0.015625 0.1875 0.015625 Z M 0.1875 -0.296875 C 0.15625 -0.296875 0.128906 -0.285156 0.109375 -0.265625 C 0.0859375 -0.242188 0.0703125 -0.21875 0.0625 -0.1875 L 0.265625 -0.1875 C 0.265625 -0.21875 0.253906 -0.242188 0.234375 -0.265625 C 0.222656 -0.285156 0.207031 -0.296875 0.1875 -0.296875 Z M 0.1875 -0.296875 "/></g></g><g transform="translate(19.409508, 16.990143)"><g><path d="M 0.453125 0 L 0.453125 -0.203125 C 0.453125 -0.234375 0.445312 -0.253906 0.4375 -0.265625 C 0.425781 -0.285156 0.40625 -0.296875 0.375 -0.296875 C 0.34375 -0.296875 0.316406 -0.285156 0.296875 -0.265625 C 0.285156 -0.253906 0.28125 -0.226562 0.28125 -0.1875 L 0.28125 0 L 0.25 0 L 0.25 -0.21875 C 0.25 -0.269531 0.226562 -0.296875 0.1875 -0.296875 C 0.15625 -0.296875 0.128906 -0.285156 0.109375 -0.265625 C 0.0859375 -0.253906 0.078125 -0.226562 0.078125 -0.1875 L 0.078125 0 L 0.0625 0 L 0.0625 -0.328125 L 0.078125 -0.328125 L 0.078125 -0.28125 C 0.0976562 -0.289062 0.113281 -0.300781 0.125 -0.3125 C 0.144531 -0.320312 0.164062 -0.328125 0.1875 -0.328125 C 0.226562 -0.328125 0.257812 -0.3125 0.28125 -0.28125 C 0.289062 -0.289062 0.300781 -0.300781 0.3125 -0.3125 C 0.332031 -0.320312 0.351562 -0.328125 0.375 -0.328125 C 0.414062 -0.328125 0.441406 -0.316406 0.453125 -0.296875 C 0.472656 -0.285156 0.484375 -0.253906 0.484375 -0.203125 L 0.484375 0 Z M 0.453125 0 "/></g></g><g transform="translate(19.945822, 16.990143)"><g/></g><g transform="translate(20.103631, 16.990143)"><g><path d="M 0.296875 0 L 0.03125 0 L 0.03125 -0.03125 L 0.15625 -0.140625 C 0.1875 -0.179688 0.207031 -0.207031 0.21875 -0.21875 C 0.226562 -0.238281 0.234375 -0.253906 0.234375 -0.265625 C 0.242188 -0.285156 0.25 -0.304688 0.25 -0.328125 C 0.25 -0.347656 0.238281 -0.367188 0.21875 -0.390625 C 0.207031 -0.410156 0.1875 -0.421875 0.15625 -0.421875 C 0.125 -0.421875 0.09375 -0.40625 0.0625 -0.375 L 0.046875 -0.40625 C 0.078125 -0.425781 0.113281 -0.4375 0.15625 -0.4375 C 0.195312 -0.4375 0.226562 -0.425781 0.25 -0.40625 C 0.269531 -0.382812 0.28125 -0.359375 0.28125 -0.328125 C 0.28125 -0.296875 0.273438 -0.265625 0.265625 -0.234375 C 0.253906 -0.210938 0.226562 -0.179688 0.1875 -0.140625 L 0.078125 -0.03125 L 0.296875 -0.03125 Z M 0.296875 0 "/></g></g></g><g fill="#000000" fill-opacity="1"><g transform="translate(18.909384, 17.80015)"><g><path d="M 0.296875 0 L 0.03125 0 L 0.03125 -0.03125 L 0.15625 -0.140625 C 0.1875 -0.179688 0.207031 -0.207031 0.21875 -0.21875 C 0.226562 -0.238281 0.234375 -0.253906 0.234375 -0.265625 C 0.242188 -0.285156 0.25 -0.304688 0.25 -0.328125 C 0.25 -0.347656 0.238281 -0.367188 0.21875 -0.390625 C 0.207031 -0.410156 0.1875 -0.421875 0.15625 -0.421875 C 0.125 -0.421875 0.09375 -0.40625 0.0625 -0.375 L 0.046875 -0.40625 C 0.078125 -0.425781 0.113281 -0.4375 0.15625 -0.4375 C 0.195312 -0.4375 0.226562 -0.425781 0.25 -0.40625 C 0.269531 -0.382812 0.28125 -0.359375 0.28125 -0.328125 C 0.28125 -0.296875 0.273438 -0.265625 0.265625 -0.234375 C 0.253906 -0.210938 0.226562 -0.179688 0.1875 -0.140625 L 0.078125 -0.03125 L 0.296875 -0.03125 Z M 0.296875 0 "/></g></g><g transform="translate(19.256149, 17.80015)"><g><path d="M 0.3125 -0.21875 C 0.3125 -0.144531 0.300781 -0.0859375 0.28125 -0.046875 C 0.257812 -0.00390625 0.222656 0.015625 0.171875 0.015625 C 0.128906 0.015625 0.09375 -0.00390625 0.0625 -0.046875 C 0.0390625 -0.0859375 0.03125 -0.144531 0.03125 -0.21875 C 0.03125 -0.289062 0.0390625 -0.34375 0.0625 -0.375 C 0.09375 -0.414062 0.128906 -0.4375 0.171875 -0.4375 C 0.210938 -0.4375 0.242188 -0.414062 0.265625 -0.375 C 0.296875 -0.34375 0.3125 -0.289062 0.3125 -0.21875 Z M 0.0625 -0.21875 C 0.0625 -0.144531 0.0703125 -0.09375 0.09375 -0.0625 C 0.113281 -0.03125 0.140625 -0.015625 0.171875 -0.015625 C 0.210938 -0.015625 0.238281 -0.03125 0.25 -0.0625 C 0.269531 -0.101562 0.28125 -0.15625 0.28125 -0.21875 C 0.28125 -0.28125 0.269531 -0.328125 0.25 -0.359375 C 0.238281 -0.398438 0.210938 -0.421875 0.171875 -0.421875 C 0.128906 -0.421875 0.0976562 -0.398438 0.078125 -0.359375 C 0.0664062 -0.328125 0.0625 -0.28125 0.0625 -0.21875 Z M 0.0625 -0.21875 "/></g></g><g transform="translate(19.602913, 17.80015)"><g><path d="M 0.0625 -0.296875 C 0.0625 -0.265625 0.0625 -0.238281 0.0625 -0.21875 C 0.0703125 -0.195312 0.0859375 -0.1875 0.109375 -0.1875 C 0.148438 -0.1875 0.171875 -0.222656 0.171875 -0.296875 C 0.171875 -0.335938 0.164062 -0.367188 0.15625 -0.390625 C 0.144531 -0.410156 0.128906 -0.421875 0.109375 -0.421875 C 0.0859375 -0.421875 0.0703125 -0.410156 0.0625 -0.390625 C 0.0625 -0.367188 0.0625 -0.335938 0.0625 -0.296875 Z M 0.203125 -0.296875 C 0.203125 -0.253906 0.191406 -0.222656 0.171875 -0.203125 C 0.160156 -0.179688 0.140625 -0.171875 0.109375 -0.171875 C 0.0859375 -0.171875 0.0664062 -0.179688 0.046875 -0.203125 C 0.0351562 -0.222656 0.03125 -0.253906 0.03125 -0.296875 C 0.03125 -0.347656 0.0351562 -0.382812 0.046875 -0.40625 C 0.0664062 -0.425781 0.0859375 -0.4375 0.109375 -0.4375 C 0.140625 -0.4375 0.160156 -0.425781 0.171875 -0.40625 C 0.191406 -0.382812 0.203125 -0.347656 0.203125 -0.296875 Z M 0.3125 -0.140625 C 0.3125 -0.0976562 0.316406 -0.0664062 0.328125 -0.046875 C 0.335938 -0.0234375 0.351562 -0.015625 0.375 -0.015625 C 0.40625 -0.015625 0.421875 -0.0546875 0.421875 -0.140625 C 0.421875 -0.203125 0.40625 -0.234375 0.375 -0.234375 C 0.351562 -0.234375 0.335938 -0.222656 0.328125 -0.203125 C 0.316406 -0.191406 0.3125 -0.171875 0.3125 -0.140625 Z M 0.453125 -0.140625 C 0.453125 -0.0859375 0.445312 -0.046875 0.4375 -0.015625 C 0.425781 0.00390625 0.40625 0.015625 0.375 0.015625 C 0.34375 0.015625 0.316406 0.00390625 0.296875 -0.015625 C 0.285156 -0.046875 0.28125 -0.0859375 0.28125 -0.140625 C 0.28125 -0.179688 0.285156 -0.210938 0.296875 -0.234375 C 0.316406 -0.253906 0.34375 -0.265625 0.375 -0.265625 C 0.394531 -0.265625 0.410156 -0.25 0.421875 -0.21875 C 0.441406 -0.195312 0.453125 -0.171875 0.453125 -0.140625 Z M 0.375 -0.4375 L 0.140625 0 L 0.109375 0 L 0.34375 -0.4375 Z M 0.375 -0.4375 "/></g></g></g><g fill="#000000" fill-opacity="1"><g transform="translate(10.284066, 23.11888)"><g><path d="M 0.0625 0 L 0.0625 -0.4375 L 0.09375 -0.4375 L 0.09375 0 Z M 0.0625 0 "/></g></g><g transform="translate(10.437129, 23.11888)"><g><path d="M 0.140625 -0.015625 C 0.160156 -0.015625 0.175781 -0.0195312 0.1875 -0.03125 L 0.1875 0 C 0.175781 0.0078125 0.160156 0.015625 0.140625 0.015625 C 0.109375 0.015625 0.0859375 0.0078125 0.078125 0 C 0.0664062 -0.0195312 0.0625 -0.046875 0.0625 -0.078125 L 0.0625 -0.296875 L 0.015625 -0.296875 L 0.015625 -0.3125 L 0.0625 -0.328125 L 0.0625 -0.40625 L 0.078125 -0.40625 L 0.078125 -0.328125 L 0.1875 -0.328125 L 0.1875 -0.296875 L 0.078125 -0.296875 L 0.078125 -0.09375 C 0.078125 -0.0703125 0.0820312 -0.0507812 0.09375 -0.03125 C 0.101562 -0.0195312 0.117188 -0.015625 0.140625 -0.015625 Z M 0.140625 -0.015625 "/></g></g><g transform="translate(10.640619, 23.11888)"><g><path d="M 0.1875 0.015625 C 0.132812 0.015625 0.09375 0 0.0625 -0.03125 C 0.0390625 -0.0625 0.03125 -0.101562 0.03125 -0.15625 C 0.03125 -0.207031 0.0390625 -0.25 0.0625 -0.28125 C 0.09375 -0.3125 0.132812 -0.328125 0.1875 -0.328125 C 0.21875 -0.328125 0.242188 -0.3125 0.265625 -0.28125 C 0.285156 -0.257812 0.296875 -0.226562 0.296875 -0.1875 L 0.296875 -0.15625 L 0.0625 -0.15625 C 0.0625 -0.113281 0.0703125 -0.078125 0.09375 -0.046875 C 0.113281 -0.0234375 0.144531 -0.015625 0.1875 -0.015625 C 0.195312 -0.015625 0.207031 -0.015625 0.21875 -0.015625 C 0.238281 -0.0234375 0.257812 -0.03125 0.28125 -0.03125 L 0.28125 -0.015625 C 0.257812 -0.00390625 0.238281 0 0.21875 0 C 0.207031 0.0078125 0.195312 0.015625 0.1875 0.015625 Z M 0.1875 -0.296875 C 0.15625 -0.296875 0.128906 -0.285156 0.109375 -0.265625 C 0.0859375 -0.242188 0.0703125 -0.21875 0.0625 -0.1875 L 0.265625 -0.1875 C 0.265625 -0.21875 0.253906 -0.242188 0.234375 -0.265625 C 0.222656 -0.285156 0.207031 -0.296875 0.1875 -0.296875 Z M 0.1875 -0.296875 "/></g></g><g transform="translate(10.974036, 23.11888)"><g><path d="M 0.453125 0 L 0.453125 -0.203125 C 0.453125 -0.234375 0.445312 -0.253906 0.4375 -0.265625 C 0.425781 -0.285156 0.40625 -0.296875 0.375 -0.296875 C 0.34375 -0.296875 0.316406 -0.285156 0.296875 -0.265625 C 0.285156 -0.253906 0.28125 -0.226562 0.28125 -0.1875 L 0.28125 0 L 0.25 0 L 0.25 -0.21875 C 0.25 -0.269531 0.226562 -0.296875 0.1875 -0.296875 C 0.15625 -0.296875 0.128906 -0.285156 0.109375 -0.265625 C 0.0859375 -0.253906 0.078125 -0.226562 0.078125 -0.1875 L 0.078125 0 L 0.0625 0 L 0.0625 -0.328125 L 0.078125 -0.328125 L 0.078125 -0.28125 C 0.0976562 -0.289062 0.113281 -0.300781 0.125 -0.3125 C 0.144531 -0.320312 0.164062 -0.328125 0.1875 -0.328125 C 0.226562 -0.328125 0.257812 -0.3125 0.28125 -0.28125 C 0.289062 -0.289062 0.300781 -0.300781 0.3125 -0.3125 C 0.332031 -0.320312 0.351562 -0.328125 0.375 -0.328125 C 0.414062 -0.328125 0.441406 -0.316406 0.453125 -0.296875 C 0.472656 -0.285156 0.484375 -0.253906 0.484375 -0.203125 L 0.484375 0 Z M 0.453125 0 "/></g></g><g transform="translate(11.510349, 23.11888)"><g/></g><g transform="translate(11.668158, 23.11888)"><g><path d="M 0.296875 -0.328125 C 0.296875 -0.304688 0.285156 -0.285156 0.265625 -0.265625 C 0.242188 -0.242188 0.222656 -0.234375 0.203125 -0.234375 C 0.234375 -0.222656 0.253906 -0.207031 0.265625 -0.1875 C 0.285156 -0.175781 0.296875 -0.15625 0.296875 -0.125 C 0.296875 -0.0820312 0.28125 -0.046875 0.25 -0.015625 C 0.226562 0.00390625 0.191406 0.015625 0.140625 0.015625 C 0.0976562 0.015625 0.0625 0.00390625 0.03125 -0.015625 L 0.03125 -0.046875 C 0.0507812 -0.0351562 0.0664062 -0.0234375 0.078125 -0.015625 C 0.0976562 -0.015625 0.117188 -0.015625 0.140625 -0.015625 C 0.179688 -0.015625 0.210938 -0.0234375 0.234375 -0.046875 C 0.265625 -0.0664062 0.28125 -0.09375 0.28125 -0.125 C 0.28125 -0.144531 0.265625 -0.160156 0.234375 -0.171875 C 0.210938 -0.191406 0.179688 -0.203125 0.140625 -0.203125 L 0.09375 -0.203125 L 0.09375 -0.234375 L 0.140625 -0.234375 C 0.179688 -0.234375 0.207031 -0.242188 0.21875 -0.265625 C 0.238281 -0.285156 0.25 -0.304688 0.25 -0.328125 C 0.25 -0.359375 0.238281 -0.378906 0.21875 -0.390625 C 0.207031 -0.410156 0.1875 -0.421875 0.15625 -0.421875 C 0.144531 -0.421875 0.128906 -0.414062 0.109375 -0.40625 C 0.0859375 -0.40625 0.0664062 -0.394531 0.046875 -0.375 L 0.03125 -0.40625 C 0.0507812 -0.414062 0.0703125 -0.421875 0.09375 -0.421875 C 0.125 -0.429688 0.144531 -0.4375 0.15625 -0.4375 C 0.207031 -0.4375 0.242188 -0.425781 0.265625 -0.40625 C 0.285156 -0.382812 0.296875 -0.359375 0.296875 -0.328125 Z M 0.296875 -0.328125 "/></g></g></g><g fill="#000000" fill-opacity="1"><g transform="translate(10.473911, 23.928888)"><g><path d="M 0.296875 0 L 0.03125 0 L 0.03125 -0.03125 L 0.15625 -0.140625 C 0.1875 -0.179688 0.207031 -0.207031 0.21875 -0.21875 C 0.226562 -0.238281 0.234375 -0.253906 0.234375 -0.265625 C 0.242188 -0.285156 0.25 -0.304688 0.25 -0.328125 C 0.25 -0.347656 0.238281 -0.367188 0.21875 -0.390625 C 0.207031 -0.410156 0.1875 -0.421875 0.15625 -0.421875 C 0.125 -0.421875 0.09375 -0.40625 0.0625 -0.375 L 0.046875 -0.40625 C 0.078125 -0.425781 0.113281 -0.4375 0.15625 -0.4375 C 0.195312 -0.4375 0.226562 -0.425781 0.25 -0.40625 C 0.269531 -0.382812 0.28125 -0.359375 0.28125 -0.328125 C 0.28125 -0.296875 0.273438 -0.265625 0.265625 -0.234375 C 0.253906 -0.210938 0.226562 -0.179688 0.1875 -0.140625 L 0.078125 -0.03125 L 0.296875 -0.03125 Z M 0.296875 0 "/></g></g><g transform="translate(10.820676, 23.928888)"><g><path d="M 0.3125 -0.21875 C 0.3125 -0.144531 0.300781 -0.0859375 0.28125 -0.046875 C 0.257812 -0.00390625 0.222656 0.015625 0.171875 0.015625 C 0.128906 0.015625 0.09375 -0.00390625 0.0625 -0.046875 C 0.0390625 -0.0859375 0.03125 -0.144531 0.03125 -0.21875 C 0.03125 -0.289062 0.0390625 -0.34375 0.0625 -0.375 C 0.09375 -0.414062 0.128906 -0.4375 0.171875 -0.4375 C 0.210938 -0.4375 0.242188 -0.414062 0.265625 -0.375 C 0.296875 -0.34375 0.3125 -0.289062 0.3125 -0.21875 Z M 0.0625 -0.21875 C 0.0625 -0.144531 0.0703125 -0.09375 0.09375 -0.0625 C 0.113281 -0.03125 0.140625 -0.015625 0.171875 -0.015625 C 0.210938 -0.015625 0.238281 -0.03125 0.25 -0.0625 C 0.269531 -0.101562 0.28125 -0.15625 0.28125 -0.21875 C 0.28125 -0.28125 0.269531 -0.328125 0.25 -0.359375 C 0.238281 -0.398438 0.210938 -0.421875 0.171875 -0.421875 C 0.128906 -0.421875 0.0976562 -0.398438 0.078125 -0.359375 C 0.0664062 -0.328125 0.0625 -0.28125 0.0625 -0.21875 Z M 0.0625 -0.21875 "/></g></g><g transform="translate(11.167441, 23.928888)"><g><path d="M 0.0625 -0.296875 C 0.0625 -0.265625 0.0625 -0.238281 0.0625 -0.21875 C 0.0703125 -0.195312 0.0859375 -0.1875 0.109375 -0.1875 C 0.148438 -0.1875 0.171875 -0.222656 0.171875 -0.296875 C 0.171875 -0.335938 0.164062 -0.367188 0.15625 -0.390625 C 0.144531 -0.410156 0.128906 -0.421875 0.109375 -0.421875 C 0.0859375 -0.421875 0.0703125 -0.410156 0.0625 -0.390625 C 0.0625 -0.367188 0.0625 -0.335938 0.0625 -0.296875 Z M 0.203125 -0.296875 C 0.203125 -0.253906 0.191406 -0.222656 0.171875 -0.203125 C 0.160156 -0.179688 0.140625 -0.171875 0.109375 -0.171875 C 0.0859375 -0.171875 0.0664062 -0.179688 0.046875 -0.203125 C 0.0351562 -0.222656 0.03125 -0.253906 0.03125 -0.296875 C 0.03125 -0.347656 0.0351562 -0.382812 0.046875 -0.40625 C 0.0664062 -0.425781 0.0859375 -0.4375 0.109375 -0.4375 C 0.140625 -0.4375 0.160156 -0.425781 0.171875 -0.40625 C 0.191406 -0.382812 0.203125 -0.347656 0.203125 -0.296875 Z M 0.3125 -0.140625 C 0.3125 -0.0976562 0.316406 -0.0664062 0.328125 -0.046875 C 0.335938 -0.0234375 0.351562 -0.015625 0.375 -0.015625 C 0.40625 -0.015625 0.421875 -0.0546875 0.421875 -0.140625 C 0.421875 -0.203125 0.40625 -0.234375 0.375 -0.234375 C 0.351562 -0.234375 0.335938 -0.222656 0.328125 -0.203125 C 0.316406 -0.191406 0.3125 -0.171875 0.3125 -0.140625 Z M 0.453125 -0.140625 C 0.453125 -0.0859375 0.445312 -0.046875 0.4375 -0.015625 C 0.425781 0.00390625 0.40625 0.015625 0.375 0.015625 C 0.34375 0.015625 0.316406 0.00390625 0.296875 -0.015625 C 0.285156 -0.046875 0.28125 -0.0859375 0.28125 -0.140625 C 0.28125 -0.179688 0.285156 -0.210938 0.296875 -0.234375 C 0.316406 -0.253906 0.34375 -0.265625 0.375 -0.265625 C 0.394531 -0.265625 0.410156 -0.25 0.421875 -0.21875 C 0.441406 -0.195312 0.453125 -0.171875 0.453125 -0.140625 Z M 0.375 -0.4375 L 0.140625 0 L 0.109375 0 L 0.34375 -0.4375 Z M 0.375 -0.4375 "/></g></g></g><g fill="#000000" fill-opacity="1"><g transform="translate(1.848592, 16.990143)"><g><path d="M 0.0625 0 L 0.0625 -0.4375 L 0.09375 -0.4375 L 0.09375 0 Z M 0.0625 0 "/></g></g><g transform="translate(2.001655, 16.990143)"><g><path d="M 0.140625 -0.015625 C 0.160156 -0.015625 0.175781 -0.0195312 0.1875 -0.03125 L 0.1875 0 C 0.175781 0.0078125 0.160156 0.015625 0.140625 0.015625 C 0.109375 0.015625 0.0859375 0.0078125 0.078125 0 C 0.0664062 -0.0195312 0.0625 -0.046875 0.0625 -0.078125 L 0.0625 -0.296875 L 0.015625 -0.296875 L 0.015625 -0.3125 L 0.0625 -0.328125 L 0.0625 -0.40625 L 0.078125 -0.40625 L 0.078125 -0.328125 L 0.1875 -0.328125 L 0.1875 -0.296875 L 0.078125 -0.296875 L 0.078125 -0.09375 C 0.078125 -0.0703125 0.0820312 -0.0507812 0.09375 -0.03125 C 0.101562 -0.0195312 0.117188 -0.015625 0.140625 -0.015625 Z M 0.140625 -0.015625 "/></g></g><g transform="translate(2.205145, 16.990143)"><g><path d="M 0.1875 0.015625 C 0.132812 0.015625 0.09375 0 0.0625 -0.03125 C 0.0390625 -0.0625 0.03125 -0.101562 0.03125 -0.15625 C 0.03125 -0.207031 0.0390625 -0.25 0.0625 -0.28125 C 0.09375 -0.3125 0.132812 -0.328125 0.1875 -0.328125 C 0.21875 -0.328125 0.242188 -0.3125 0.265625 -0.28125 C 0.285156 -0.257812 0.296875 -0.226562 0.296875 -0.1875 L 0.296875 -0.15625 L 0.0625 -0.15625 C 0.0625 -0.113281 0.0703125 -0.078125 0.09375 -0.046875 C 0.113281 -0.0234375 0.144531 -0.015625 0.1875 -0.015625 C 0.195312 -0.015625 0.207031 -0.015625 0.21875 -0.015625 C 0.238281 -0.0234375 0.257812 -0.03125 0.28125 -0.03125 L 0.28125 -0.015625 C 0.257812 -0.00390625 0.238281 0 0.21875 0 C 0.207031 0.0078125 0.195312 0.015625 0.1875 0.015625 Z M 0.1875 -0.296875 C 0.15625 -0.296875 0.128906 -0.285156 0.109375 -0.265625 C 0.0859375 -0.242188 0.0703125 -0.21875 0.0625 -0.1875 L 0.265625 -0.1875 C 0.265625 -0.21875 0.253906 -0.242188 0.234375 -0.265625 C 0.222656 -0.285156 0.207031 -0.296875 0.1875 -0.296875 Z M 0.1875 -0.296875 "/></g></g><g transform="translate(2.538562, 16.990143)"><g><path d="M 0.453125 0 L 0.453125 -0.203125 C 0.453125 -0.234375 0.445312 -0.253906 0.4375 -0.265625 C 0.425781 -0.285156 0.40625 -0.296875 0.375 -0.296875 C 0.34375 -0.296875 0.316406 -0.285156 0.296875 -0.265625 C 0.285156 -0.253906 0.28125 -0.226562 0.28125 -0.1875 L 0.28125 0 L 0.25 0 L 0.25 -0.21875 C 0.25 -0.269531 0.226562 -0.296875 0.1875 -0.296875 C 0.15625 -0.296875 0.128906 -0.285156 0.109375 -0.265625 C 0.0859375 -0.253906 0.078125 -0.226562 0.078125 -0.1875 L 0.078125 0 L 0.0625 0 L 0.0625 -0.328125 L 0.078125 -0.328125 L 0.078125 -0.28125 C 0.0976562 -0.289062 0.113281 -0.300781 0.125 -0.3125 C 0.144531 -0.320312 0.164062 -0.328125 0.1875 -0.328125 C 0.226562 -0.328125 0.257812 -0.3125 0.28125 -0.28125 C 0.289062 -0.289062 0.300781 -0.300781 0.3125 -0.3125 C 0.332031 -0.320312 0.351562 -0.328125 0.375 -0.328125 C 0.414062 -0.328125 0.441406 -0.316406 0.453125 -0.296875 C 0.472656 -0.285156 0.484375 -0.253906 0.484375 -0.203125 L 0.484375 0 Z M 0.453125 0 "/></g></g><g transform="translate(3.074875, 16.990143)"><g/></g><g transform="translate(3.232684, 16.990143)"><g><path d="M 0.34375 -0.109375 L 0.265625 -0.109375 L 0.265625 0 L 0.234375 0 L 0.234375 -0.109375 L 0.015625 -0.109375 L 0.015625 -0.140625 L 0.234375 -0.4375 L 0.265625 -0.4375 L 0.265625 -0.140625 L 0.34375 -0.140625 Z M 0.234375 -0.140625 L 0.234375 -0.25 C 0.234375 -0.3125 0.234375 -0.363281 0.234375 -0.40625 C 0.234375 -0.40625 0.222656 -0.382812 0.203125 -0.34375 L 0.046875 -0.140625 Z M 0.234375 -0.140625 "/></g></g></g><g fill="#000000" fill-opacity="1"><g transform="translate(2.038437, 17.80015)"><g><path d="M 0.296875 0 L 0.03125 0 L 0.03125 -0.03125 L 0.15625 -0.140625 C 0.1875 -0.179688 0.207031 -0.207031 0.21875 -0.21875 C 0.226562 -0.238281 0.234375 -0.253906 0.234375 -0.265625 C 0.242188 -0.285156 0.25 -0.304688 0.25 -0.328125 C 0.25 -0.347656 0.238281 -0.367188 0.21875 -0.390625 C 0.207031 -0.410156 0.1875 -0.421875 0.15625 -0.421875 C 0.125 -0.421875 0.09375 -0.40625 0.0625 -0.375 L 0.046875 -0.40625 C 0.078125 -0.425781 0.113281 -0.4375 0.15625 -0.4375 C 0.195312 -0.4375 0.226562 -0.425781 0.25 -0.40625 C 0.269531 -0.382812 0.28125 -0.359375 0.28125 -0.328125 C 0.28125 -0.296875 0.273438 -0.265625 0.265625 -0.234375 C 0.253906 -0.210938 0.226562 -0.179688 0.1875 -0.140625 L 0.078125 -0.03125 L 0.296875 -0.03125 Z M 0.296875 0 "/></g></g><g transform="translate(2.385202, 17.80015)"><g><path d="M 0.3125 -0.21875 C 0.3125 -0.144531 0.300781 -0.0859375 0.28125 -0.046875 C 0.257812 -0.00390625 0.222656 0.015625 0.171875 0.015625 C 0.128906 0.015625 0.09375 -0.00390625 0.0625 -0.046875 C 0.0390625 -0.0859375 0.03125 -0.144531 0.03125 -0.21875 C 0.03125 -0.289062 0.0390625 -0.34375 0.0625 -0.375 C 0.09375 -0.414062 0.128906 -0.4375 0.171875 -0.4375 C 0.210938 -0.4375 0.242188 -0.414062 0.265625 -0.375 C 0.296875 -0.34375 0.3125 -0.289062 0.3125 -0.21875 Z M 0.0625 -0.21875 C 0.0625 -0.144531 0.0703125 -0.09375 0.09375 -0.0625 C 0.113281 -0.03125 0.140625 -0.015625 0.171875 -0.015625 C 0.210938 -0.015625 0.238281 -0.03125 0.25 -0.0625 C 0.269531 -0.101562 0.28125 -0.15625 0.28125 -0.21875 C 0.28125 -0.28125 0.269531 -0.328125 0.25 -0.359375 C 0.238281 -0.398438 0.210938 -0.421875 0.171875 -0.421875 C 0.128906 -0.421875 0.0976562 -0.398438 0.078125 -0.359375 C 0.0664062 -0.328125 0.0625 -0.28125 0.0625 -0.21875 Z M 0.0625 -0.21875 "/></g></g><g transform="translate(2.731967, 17.80015)"><g><path d="M 0.0625 -0.296875 C 0.0625 -0.265625 0.0625 -0.238281 0.0625 -0.21875 C 0.0703125 -0.195312 0.0859375 -0.1875 0.109375 -0.1875 C 0.148438 -0.1875 0.171875 -0.222656 0.171875 -0.296875 C 0.171875 -0.335938 0.164062 -0.367188 0.15625 -0.390625 C 0.144531 -0.410156 0.128906 -0.421875 0.109375 -0.421875 C 0.0859375 -0.421875 0.0703125 -0.410156 0.0625 -0.390625 C 0.0625 -0.367188 0.0625 -0.335938 0.0625 -0.296875 Z M 0.203125 -0.296875 C 0.203125 -0.253906 0.191406 -0.222656 0.171875 -0.203125 C 0.160156 -0.179688 0.140625 -0.171875 0.109375 -0.171875 C 0.0859375 -0.171875 0.0664062 -0.179688 0.046875 -0.203125 C 0.0351562 -0.222656 0.03125 -0.253906 0.03125 -0.296875 C 0.03125 -0.347656 0.0351562 -0.382812 0.046875 -0.40625 C 0.0664062 -0.425781 0.0859375 -0.4375 0.109375 -0.4375 C 0.140625 -0.4375 0.160156 -0.425781 0.171875 -0.40625 C 0.191406 -0.382812 0.203125 -0.347656 0.203125 -0.296875 Z M 0.3125 -0.140625 C 0.3125 -0.0976562 0.316406 -0.0664062 0.328125 -0.046875 C 0.335938 -0.0234375 0.351562 -0.015625 0.375 -0.015625 C 0.40625 -0.015625 0.421875 -0.0546875 0.421875 -0.140625 C 0.421875 -0.203125 0.40625 -0.234375 0.375 -0.234375 C 0.351562 -0.234375 0.335938 -0.222656 0.328125 -0.203125 C 0.316406 -0.191406 0.3125 -0.171875 0.3125 -0.140625 Z M 0.453125 -0.140625 C 0.453125 -0.0859375 0.445312 -0.046875 0.4375 -0.015625 C 0.425781 0.00390625 0.40625 0.015625 0.375 0.015625 C 0.34375 0.015625 0.316406 0.00390625 0.296875 -0.015625 C 0.285156 -0.046875 0.28125 -0.0859375 0.28125 -0.140625 C 0.28125 -0.179688 0.285156 -0.210938 0.296875 -0.234375 C 0.316406 -0.253906 0.34375 -0.265625 0.375 -0.265625 C 0.394531 -0.265625 0.410156 -0.25 0.421875 -0.21875 C 0.441406 -0.195312 0.453125 -0.171875 0.453125 -0.140625 Z M 0.375 -0.4375 L 0.140625 0 L 0.109375 0 L 0.34375 -0.4375 Z M 0.375 -0.4375 "/></g></g></g><g fill="#000000" fill-opacity="1"><g transform="translate(5.070656, 7.07366)"><g><path d="M 0.0625 0 L 0.0625 -0.4375 L 0.09375 -0.4375 L 0.09375 0 Z M 0.0625 0 "/></g></g><g transform="translate(5.223719, 7.07366)"><g><path d="M 0.140625 -0.015625 C 0.160156 -0.015625 0.175781 -0.0195312 0.1875 -0.03125 L 0.1875 0 C 0.175781 0.0078125 0.160156 0.015625 0.140625 0.015625 C 0.109375 0.015625 0.0859375 0.0078125 0.078125 0 C 0.0664062 -0.0195312 0.0625 -0.046875 0.0625 -0.078125 L 0.0625 -0.296875 L 0.015625 -0.296875 L 0.015625 -0.3125 L 0.0625 -0.328125 L 0.0625 -0.40625 L 0.078125 -0.40625 L 0.078125 -0.328125 L 0.1875 -0.328125 L 0.1875 -0.296875 L 0.078125 -0.296875 L 0.078125 -0.09375 C 0.078125 -0.0703125 0.0820312 -0.0507812 0.09375 -0.03125 C 0.101562 -0.0195312 0.117188 -0.015625 0.140625 -0.015625 Z M 0.140625 -0.015625 "/></g></g><g transform="translate(5.427209, 7.07366)"><g><path d="M 0.1875 0.015625 C 0.132812 0.015625 0.09375 0 0.0625 -0.03125 C 0.0390625 -0.0625 0.03125 -0.101562 0.03125 -0.15625 C 0.03125 -0.207031 0.0390625 -0.25 0.0625 -0.28125 C 0.09375 -0.3125 0.132812 -0.328125 0.1875 -0.328125 C 0.21875 -0.328125 0.242188 -0.3125 0.265625 -0.28125 C 0.285156 -0.257812 0.296875 -0.226562 0.296875 -0.1875 L 0.296875 -0.15625 L 0.0625 -0.15625 C 0.0625 -0.113281 0.0703125 -0.078125 0.09375 -0.046875 C 0.113281 -0.0234375 0.144531 -0.015625 0.1875 -0.015625 C 0.195312 -0.015625 0.207031 -0.015625 0.21875 -0.015625 C 0.238281 -0.0234375 0.257812 -0.03125 0.28125 -0.03125 L 0.28125 -0.015625 C 0.257812 -0.00390625 0.238281 0 0.21875 0 C 0.207031 0.0078125 0.195312 0.015625 0.1875 0.015625 Z M 0.1875 -0.296875 C 0.15625 -0.296875 0.128906 -0.285156 0.109375 -0.265625 C 0.0859375 -0.242188 0.0703125 -0.21875 0.0625 -0.1875 L 0.265625 -0.1875 C 0.265625 -0.21875 0.253906 -0.242188 0.234375 -0.265625 C 0.222656 -0.285156 0.207031 -0.296875 0.1875 -0.296875 Z M 0.1875 -0.296875 "/></g></g><g transform="translate(5.760626, 7.07366)"><g><path d="M 0.453125 0 L 0.453125 -0.203125 C 0.453125 -0.234375 0.445312 -0.253906 0.4375 -0.265625 C 0.425781 -0.285156 0.40625 -0.296875 0.375 -0.296875 C 0.34375 -0.296875 0.316406 -0.285156 0.296875 -0.265625 C 0.285156 -0.253906 0.28125 -0.226562 0.28125 -0.1875 L 0.28125 0 L 0.25 0 L 0.25 -0.21875 C 0.25 -0.269531 0.226562 -0.296875 0.1875 -0.296875 C 0.15625 -0.296875 0.128906 -0.285156 0.109375 -0.265625 C 0.0859375 -0.253906 0.078125 -0.226562 0.078125 -0.1875 L 0.078125 0 L 0.0625 0 L 0.0625 -0.328125 L 0.078125 -0.328125 L 0.078125 -0.28125 C 0.0976562 -0.289062 0.113281 -0.300781 0.125 -0.3125 C 0.144531 -0.320312 0.164062 -0.328125 0.1875 -0.328125 C 0.226562 -0.328125 0.257812 -0.3125 0.28125 -0.28125 C 0.289062 -0.289062 0.300781 -0.300781 0.3125 -0.3125 C 0.332031 -0.320312 0.351562 -0.328125 0.375 -0.328125 C 0.414062 -0.328125 0.441406 -0.316406 0.453125 -0.296875 C 0.472656 -0.285156 0.484375 -0.253906 0.484375 -0.203125 L 0.484375 0 Z M 0.453125 0 "/></g></g><g transform="translate(6.296939, 7.07366)"><g/></g><g transform="translate(6.454748, 7.07366)"><g><path d="M 0.15625 -0.25 C 0.207031 -0.25 0.242188 -0.238281 0.265625 -0.21875 C 0.296875 -0.195312 0.3125 -0.171875 0.3125 -0.140625 C 0.3125 -0.0859375 0.296875 -0.046875 0.265625 -0.015625 C 0.242188 0.00390625 0.207031 0.015625 0.15625 0.015625 C 0.132812 0.015625 0.113281 0.0078125 0.09375 0 C 0.0703125 -0.0078125 0.0507812 -0.015625 0.03125 -0.015625 L 0.03125 -0.046875 C 0.0625 -0.0351562 0.0820312 -0.0234375 0.09375 -0.015625 C 0.113281 -0.015625 0.132812 -0.015625 0.15625 -0.015625 C 0.1875 -0.015625 0.210938 -0.0234375 0.234375 -0.046875 C 0.265625 -0.0664062 0.28125 -0.0976562 0.28125 -0.140625 C 0.28125 -0.171875 0.265625 -0.191406 0.234375 -0.203125 C 0.210938 -0.222656 0.1875 -0.234375 0.15625 -0.234375 C 0.125 -0.234375 0.0976562 -0.234375 0.078125 -0.234375 L 0.0625 -0.234375 L 0.078125 -0.4375 L 0.28125 -0.4375 L 0.28125 -0.40625 L 0.109375 -0.40625 L 0.078125 -0.25 C 0.117188 -0.25 0.144531 -0.25 0.15625 -0.25 Z M 0.15625 -0.25 "/></g></g></g><g fill="#000000" fill-opacity="1"><g transform="translate(5.260501, 7.883667)"><g><path d="M 0.296875 0 L 0.03125 0 L 0.03125 -0.03125 L 0.15625 -0.140625 C 0.1875 -0.179688 0.207031 -0.207031 0.21875 -0.21875 C 0.226562 -0.238281 0.234375 -0.253906 0.234375 -0.265625 C 0.242188 -0.285156 0.25 -0.304688 0.25 -0.328125 C 0.25 -0.347656 0.238281 -0.367188 0.21875 -0.390625 C 0.207031 -0.410156 0.1875 -0.421875 0.15625 -0.421875 C 0.125 -0.421875 0.09375 -0.40625 0.0625 -0.375 L 0.046875 -0.40625 C 0.078125 -0.425781 0.113281 -0.4375 0.15625 -0.4375 C 0.195312 -0.4375 0.226562 -0.425781 0.25 -0.40625 C 0.269531 -0.382812 0.28125 -0.359375 0.28125 -0.328125 C 0.28125 -0.296875 0.273438 -0.265625 0.265625 -0.234375 C 0.253906 -0.210938 0.226562 -0.179688 0.1875 -0.140625 L 0.078125 -0.03125 L 0.296875 -0.03125 Z M 0.296875 0 "/></g></g><g transform="translate(5.607266, 7.883667)"><g><path d="M 0.3125 -0.21875 C 0.3125 -0.144531 0.300781 -0.0859375 0.28125 -0.046875 C 0.257812 -0.00390625 0.222656 0.015625 0.171875 0.015625 C 0.128906 0.015625 0.09375 -0.00390625 0.0625 -0.046875 C 0.0390625 -0.0859375 0.03125 -0.144531 0.03125 -0.21875 C 0.03125 -0.289062 0.0390625 -0.34375 0.0625 -0.375 C 0.09375 -0.414062 0.128906 -0.4375 0.171875 -0.4375 C 0.210938 -0.4375 0.242188 -0.414062 0.265625 -0.375 C 0.296875 -0.34375 0.3125 -0.289062 0.3125 -0.21875 Z M 0.0625 -0.21875 C 0.0625 -0.144531 0.0703125 -0.09375 0.09375 -0.0625 C 0.113281 -0.03125 0.140625 -0.015625 0.171875 -0.015625 C 0.210938 -0.015625 0.238281 -0.03125 0.25 -0.0625 C 0.269531 -0.101562 0.28125 -0.15625 0.28125 -0.21875 C 0.28125 -0.28125 0.269531 -0.328125 0.25 -0.359375 C 0.238281 -0.398438 0.210938 -0.421875 0.171875 -0.421875 C 0.128906 -0.421875 0.0976562 -0.398438 0.078125 -0.359375 C 0.0664062 -0.328125 0.0625 -0.28125 0.0625 -0.21875 Z M 0.0625 -0.21875 "/></g></g><g transform="translate(5.954031, 7.883667)"><g><path d="M 0.0625 -0.296875 C 0.0625 -0.265625 0.0625 -0.238281 0.0625 -0.21875 C 0.0703125 -0.195312 0.0859375 -0.1875 0.109375 -0.1875 C 0.148438 -0.1875 0.171875 -0.222656 0.171875 -0.296875 C 0.171875 -0.335938 0.164062 -0.367188 0.15625 -0.390625 C 0.144531 -0.410156 0.128906 -0.421875 0.109375 -0.421875 C 0.0859375 -0.421875 0.0703125 -0.410156 0.0625 -0.390625 C 0.0625 -0.367188 0.0625 -0.335938 0.0625 -0.296875 Z M 0.203125 -0.296875 C 0.203125 -0.253906 0.191406 -0.222656 0.171875 -0.203125 C 0.160156 -0.179688 0.140625 -0.171875 0.109375 -0.171875 C 0.0859375 -0.171875 0.0664062 -0.179688 0.046875 -0.203125 C 0.0351562 -0.222656 0.03125 -0.253906 0.03125 -0.296875 C 0.03125 -0.347656 0.0351562 -0.382812 0.046875 -0.40625 C 0.0664062 -0.425781 0.0859375 -0.4375 0.109375 -0.4375 C 0.140625 -0.4375 0.160156 -0.425781 0.171875 -0.40625 C 0.191406 -0.382812 0.203125 -0.347656 0.203125 -0.296875 Z M 0.3125 -0.140625 C 0.3125 -0.0976562 0.316406 -0.0664062 0.328125 -0.046875 C 0.335938 -0.0234375 0.351562 -0.015625 0.375 -0.015625 C 0.40625 -0.015625 0.421875 -0.0546875 0.421875 -0.140625 C 0.421875 -0.203125 0.40625 -0.234375 0.375 -0.234375 C 0.351562 -0.234375 0.335938 -0.222656 0.328125 -0.203125 C 0.316406 -0.191406 0.3125 -0.171875 0.3125 -0.140625 Z M 0.453125 -0.140625 C 0.453125 -0.0859375 0.445312 -0.046875 0.4375 -0.015625 C 0.425781 0.00390625 0.40625 0.015625 0.375 0.015625 C 0.34375 0.015625 0.316406 0.00390625 0.296875 -0.015625 C 0.285156 -0.046875 0.28125 -0.0859375 0.28125 -0.140625 C 0.28125 -0.179688 0.285156 -0.210938 0.296875 -0.234375 C 0.316406 -0.253906 0.34375 -0.265625 0.375 -0.265625 C 0.394531 -0.265625 0.410156 -0.25 0.421875 -0.21875 C 0.441406 -0.195312 0.453125 -0.171875 0.453125 -0.140625 Z M 0.375 -0.4375 L 0.140625 0 L 0.109375 0 L 0.34375 -0.4375 Z M 0.375 -0.4375 "/></g></g></g><path fill="#31356e" d="M 11.070312 6.65625 C 11.902344 6.65625 12.714844 6.789062 13.503906 7.058594 C 14.296875 7.324219 15.023438 7.710938 15.683594 8.21875 C 16.347656 8.726562 16.910156 9.328125 17.375 10.019531 C 17.839844 10.710938 18.179688 11.460938 18.398438 12.265625 L 14.734375 13.257812 C 14.625 12.855469 14.453125 12.480469 14.222656 12.132812 C 13.988281 11.789062 13.707031 11.488281 13.375 11.234375 C 13.046875 10.980469 12.683594 10.785156 12.289062 10.652344 C 11.890625 10.519531 11.484375 10.453125 11.070312 10.453125 Z M 11.070312 6.65625 " fill-opacity="1" fill-rule="nonzero"/><path fill="#2f5f98" d="M 18.289062 11.902344 C 18.546875 12.695312 18.671875 13.511719 18.660156 14.34375 C 18.652344 15.179688 18.507812 15.988281 18.230469 16.777344 C 17.953125 17.5625 17.554688 18.285156 17.039062 18.941406 C 16.523438 19.597656 15.917969 20.152344 15.21875 20.609375 L 13.144531 17.429688 C 13.492188 17.199219 13.796875 16.921875 14.054688 16.59375 C 14.3125 16.265625 14.511719 15.90625 14.648438 15.511719 C 14.789062 15.117188 14.859375 14.714844 14.867188 14.296875 C 14.871094 13.878906 14.808594 13.472656 14.679688 13.074219 Z M 18.289062 11.902344 " fill-opacity="1" fill-rule="nonzero"/><path fill="#2d8bba" d="M 15.53125 20.394531 C 14.855469 20.882812 14.121094 21.253906 13.324219 21.5 C 12.527344 21.75 11.714844 21.863281 10.878906 21.839844 C 10.042969 21.820312 9.234375 21.664062 8.453125 21.378906 C 7.667969 21.089844 6.953125 20.6875 6.304688 20.160156 L 8.6875 17.207031 C 9.011719 17.46875 9.371094 17.671875 9.761719 17.8125 C 10.152344 17.957031 10.558594 18.035156 10.972656 18.046875 C 11.390625 18.054688 11.796875 18 12.195312 17.875 C 12.59375 17.75 12.964844 17.566406 13.300781 17.320312 Z M 15.53125 20.394531 " fill-opacity="1" fill-rule="nonzero"/><path fill="#41b8d5" d="M 6.605469 20.394531 C 5.929688 19.902344 5.351562 19.316406 4.871094 18.636719 C 4.386719 17.953125 4.027344 17.214844 3.789062 16.414062 C 3.550781 15.613281 3.449219 14.796875 3.480469 13.964844 C 3.511719 13.132812 3.675781 12.324219 3.972656 11.542969 L 7.519531 12.898438 C 7.371094 13.285156 7.289062 13.691406 7.273438 14.105469 C 7.257812 14.523438 7.308594 14.933594 7.429688 15.332031 C 7.546875 15.730469 7.726562 16.101562 7.96875 16.441406 C 8.210938 16.78125 8.5 17.074219 8.835938 17.320312 Z M 6.605469 20.394531 " fill-opacity="1" fill-rule="nonzero"/><path fill="#6ce5e8" d="M 3.847656 11.902344 C 4.09375 11.140625 4.453125 10.433594 4.925781 9.785156 C 5.398438 9.136719 5.957031 8.578125 6.605469 8.105469 C 7.253906 7.632812 7.960938 7.273438 8.722656 7.027344 C 9.484375 6.78125 10.265625 6.65625 11.066406 6.65625 L 11.070312 10.453125 C 10.667969 10.453125 10.277344 10.515625 9.894531 10.636719 C 9.515625 10.761719 9.160156 10.941406 8.835938 11.175781 C 8.511719 11.414062 8.234375 11.691406 7.996094 12.019531 C 7.761719 12.34375 7.582031 12.695312 7.457031 13.074219 Z M 3.847656 11.902344 " fill-opacity="1" fill-rule="nonzero"/><g clip-path="url(#id5)"><path fill="#2d8bba" d="M 33.363281 9.910156 L 28.097656 9.910156 C 27.894531 9.910156 27.730469 9.71875 27.730469 9.484375 L 27.730469 8.085938 C 27.730469 7.851562 27.894531 7.660156 28.097656 7.660156 L 33.363281 7.660156 C 33.566406 7.660156 33.730469 7.851562 33.730469 8.085938 L 33.730469 9.484375 C 33.730469 9.71875 33.566406 9.910156 33.363281 9.910156 " fill-opacity="1" fill-rule="nonzero"/></g><g clip-path="url(#id6)"><path fill="#2d8bba" d="M 26.179688 9.90625 L 23.972656 9.90625 C 23.753906 9.90625 23.574219 9.71875 23.574219 9.484375 L 23.574219 8.085938 C 23.574219 7.851562 23.753906 7.664062 23.972656 7.664062 L 26.179688 7.664062 C 26.398438 7.664062 26.574219 7.851562 26.574219 8.085938 L 26.574219 9.484375 C 26.574219 9.71875 26.398438 9.90625 26.179688 9.90625 " fill-opacity="1" fill-rule="nonzero"/></g><g clip-path="url(#id7)"><path fill="#2d8bba" d="M 33.738281 13.441406 L 23.914062 13.441406 C 23.734375 13.441406 23.585938 13.292969 23.585938 13.109375 L 23.585938 11.519531 C 23.585938 11.339844 23.734375 11.191406 23.914062 11.191406 L 33.738281 11.191406 C 33.917969 11.191406 34.0625 11.339844 34.0625 11.519531 L 34.0625 13.109375 C 34.0625 13.292969 33.917969 13.441406 33.738281 13.441406 " fill-opacity="1" fill-rule="nonzero"/></g><g clip-path="url(#id8)"><path fill="#2d8bba" d="M 33.363281 17.34375 L 28.097656 17.34375 C 27.894531 17.34375 27.730469 17.15625 27.730469 16.921875 L 27.730469 15.519531 C 27.730469 15.289062 27.894531 15.097656 28.097656 15.097656 L 33.363281 15.097656 C 33.566406 15.097656 33.730469 15.289062 33.730469 15.519531 L 33.730469 16.921875 C 33.730469 17.15625 33.566406 17.34375 33.363281 17.34375 " fill-opacity="1" fill-rule="nonzero"/></g><g clip-path="url(#id9)"><path fill="#2d8bba" d="M 26.179688 17.34375 L 23.972656 17.34375 C 23.753906 17.34375 23.574219 17.152344 23.574219 16.921875 L 23.574219 15.523438 C 23.574219 15.289062 23.753906 15.097656 23.972656 15.097656 L 26.179688 15.097656 C 26.398438 15.097656 26.574219 15.289062 26.574219 15.523438 L 26.574219 16.921875 C 26.574219 17.152344 26.398438 17.34375 26.179688 17.34375 " fill-opacity="1" fill-rule="nonzero"/></g><g clip-path="url(#id10)"><path fill="#2d8bba" d="M 33.738281 20.875 L 23.914062 20.875 C 23.734375 20.875 23.585938 20.726562 23.585938 20.546875 L 23.585938 18.957031 C 23.585938 18.773438 23.734375 18.625 23.914062 18.625 L 33.738281 18.625 C 33.917969 18.625 34.0625 18.773438 34.0625 18.957031 L 34.0625 20.546875 C 34.0625 20.726562 33.917969 20.875 33.738281 20.875 " fill-opacity="1" fill-rule="nonzero"/></g></svg>