<svg xmlns="http://www.w3.org/2000/svg" xmlns:xlink="http://www.w3.org/1999/xlink" width="50" zoomAndPan="magnify" viewBox="0 0 37.5 37.499999" height="50" preserveAspectRatio="xMidYMid meet" version="1.0"><defs><clipPath id="id1"><path d="M 3.65625 1.695312 L 33.65625 1.695312 L 33.65625 10.695312 L 3.65625 10.695312 Z M 3.65625 1.695312 " clip-rule="nonzero"/></clipPath><clipPath id="id2"><path d="M 3.65625 8.738281 L 33.65625 8.738281 L 33.65625 31.988281 L 3.65625 31.988281 Z M 3.65625 8.738281 " clip-rule="nonzero"/></clipPath><clipPath id="id3"><path d="M 5.234375 10.789062 L 21.734375 10.789062 L 21.734375 13.789062 L 5.234375 13.789062 Z M 5.234375 10.789062 " clip-rule="nonzero"/></clipPath><clipPath id="id4"><path d="M 5.234375 16.929688 L 10.484375 16.929688 L 10.484375 20.679688 L 5.234375 20.679688 Z M 5.234375 16.929688 " clip-rule="nonzero"/></clipPath><clipPath id="id5"><path d="M 11 20 L 26 20 L 26 35.679688 L 11 35.679688 Z M 11 20 " clip-rule="nonzero"/></clipPath><clipPath id="id6"><path d="M 8.726562 16.929688 L 28.976562 16.929688 L 28.976562 27 L 8.726562 27 Z M 8.726562 16.929688 " clip-rule="nonzero"/></clipPath><clipPath id="id7"><path d="M 16.453125 23.21875 L 20.953125 23.21875 L 20.953125 27.71875 L 16.453125 27.71875 Z M 16.453125 23.21875 " clip-rule="nonzero"/></clipPath><clipPath id="id8"><path d="M 17 23.21875 L 20.953125 23.21875 L 20.953125 27.71875 L 17 27.71875 Z M 17 23.21875 " clip-rule="nonzero"/></clipPath><clipPath id="id9"><path d="M 18 25 L 20.953125 25 L 20.953125 26 L 18 26 Z M 18 25 " clip-rule="nonzero"/></clipPath><clipPath id="id10"><path d="M 18 23.21875 L 19 23.21875 L 19 27.71875 L 18 27.71875 Z M 18 23.21875 " clip-rule="nonzero"/></clipPath><clipPath id="id11"><path d="M 17 25 L 20.953125 25 L 20.953125 26 L 17 26 Z M 17 25 " clip-rule="nonzero"/></clipPath><clipPath id="id12"><path d="M 5.234375 3.75 L 7.484375 3.75 L 7.484375 6 L 5.234375 6 Z M 5.234375 3.75 " clip-rule="nonzero"/></clipPath><clipPath id="id13"><path d="M 8.484375 3.75 L 10.734375 3.75 L 10.734375 6 L 8.484375 6 Z M 8.484375 3.75 " clip-rule="nonzero"/></clipPath><clipPath id="id14"><path d="M 11.765625 3.75 L 14.015625 3.75 L 14.015625 6 L 11.765625 6 Z M 11.765625 3.75 " clip-rule="nonzero"/></clipPath></defs><g clip-path="url(#id1)"><path fill="#292f33" d="M 32.496094 10.695312 L 4.8125 10.695312 C 4.175781 10.695312 3.65625 10.179688 3.65625 9.546875 L 3.65625 2.84375 C 3.65625 2.210938 4.175781 1.695312 4.8125 1.695312 L 32.496094 1.695312 C 33.136719 1.695312 33.65625 2.210938 33.65625 2.84375 L 33.65625 9.546875 C 33.65625 10.179688 33.136719 10.695312 32.496094 10.695312 " fill-opacity="1" fill-rule="nonzero"/></g><g clip-path="url(#id2)"><path fill="#d9d9dd" d="M 3.65625 8.738281 L 33.65625 8.738281 L 33.65625 31.988281 L 3.65625 31.988281 L 3.65625 8.738281 " fill-opacity="1" fill-rule="nonzero"/></g><g clip-path="url(#id3)"><path fill="#bbbaba" d="M 21.15625 13.789062 L 5.8125 13.789062 C 5.496094 13.789062 5.234375 13.535156 5.234375 13.222656 L 5.234375 11.355469 C 5.234375 11.042969 5.496094 10.789062 5.8125 10.789062 L 21.15625 10.789062 C 21.472656 10.789062 21.734375 11.042969 21.734375 11.355469 L 21.734375 13.222656 C 21.734375 13.535156 21.472656 13.789062 21.15625 13.789062 " fill-opacity="1" fill-rule="nonzero"/></g><g clip-path="url(#id4)"><path fill="#bbbaba" d="M 9.839844 20.679688 L 5.878906 20.679688 C 5.523438 20.679688 5.238281 20.363281 5.238281 19.972656 L 5.238281 17.636719 C 5.238281 17.246094 5.523438 16.929688 5.878906 16.929688 L 9.839844 16.929688 C 10.195312 16.929688 10.480469 17.246094 10.480469 17.636719 L 10.480469 19.972656 C 10.480469 20.363281 10.195312 20.679688 9.839844 20.679688 " fill-opacity="1" fill-rule="nonzero"/></g><g clip-path="url(#id5)"><path fill="#8f0000" d="M 25.960938 26.460938 Z M 25.960938 26.460938 L 18.855469 20.300781 L 11.746094 26.460938 L 11.746094 35.269531 C 11.746094 35.496094 11.933594 35.675781 12.164062 35.675781 L 16.609375 35.675781 L 16.609375 31.816406 C 16.609375 31.589844 16.792969 31.40625 17.027344 31.40625 L 20.679688 31.40625 C 20.910156 31.40625 21.097656 31.589844 21.097656 31.816406 L 21.097656 35.675781 L 25.542969 35.675781 C 25.773438 35.675781 25.960938 35.496094 25.960938 35.269531 Z M 11.746094 26.460938 Z M 11.746094 26.460938 " fill-opacity="1" fill-rule="nonzero"/></g><g clip-path="url(#id6)"><path fill="#8f0000" d="M 18.8125 16.929688 L 8.730469 25.667969 L 9.792969 26.839844 L 18.855469 18.984375 L 27.914062 26.839844 L 28.976562 25.667969 L 18.894531 16.929688 L 18.855469 16.972656 Z M 18.8125 16.929688 " fill-opacity="1" fill-rule="nonzero"/></g><path fill="#8f0000" d="M 11.746094 18.1875 L 14.300781 18.1875 L 14.277344 19.667969 L 11.746094 21.910156 Z M 11.746094 18.1875 " fill-opacity="1" fill-rule="nonzero"/><g clip-path="url(#id7)"><path fill="#edeeec" d="M 18.703125 23.21875 C 19.945312 23.21875 20.953125 24.226562 20.953125 25.46875 C 20.953125 26.710938 19.945312 27.71875 18.703125 27.71875 C 17.460938 27.71875 16.453125 26.710938 16.453125 25.46875 C 16.453125 24.226562 17.460938 23.21875 18.703125 23.21875 " fill-opacity="1" fill-rule="evenodd"/><path fill="#dadcd8" d="M 18.703125 23.628906 C 19.71875 23.628906 20.542969 24.453125 20.542969 25.46875 C 20.542969 26.484375 19.71875 27.308594 18.703125 27.308594 C 17.6875 27.308594 16.863281 26.484375 16.863281 25.46875 C 16.863281 24.453125 17.6875 23.628906 18.703125 23.628906 Z M 18.703125 23.554688 C 19.761719 23.554688 20.617188 24.410156 20.617188 25.46875 C 20.617188 26.523438 19.761719 27.382812 18.703125 27.382812 C 17.648438 27.382812 16.789062 26.523438 16.789062 25.46875 C 16.789062 24.410156 17.648438 23.554688 18.703125 23.554688 " fill-opacity="1" fill-rule="evenodd"/></g><g clip-path="url(#id8)"><path fill="#dadcd8" d="M 18.703125 23.785156 C 19.632812 23.785156 20.386719 24.539062 20.386719 25.46875 C 20.386719 26.398438 19.632812 27.152344 18.703125 27.152344 C 17.773438 27.152344 17.019531 26.398438 17.019531 25.46875 C 17.019531 24.539062 17.773438 23.785156 18.703125 23.785156 " fill-opacity="1" fill-rule="evenodd"/><path fill="#12899c" d="M 18.703125 23.902344 C 19.570312 23.902344 20.269531 24.601562 20.269531 25.46875 C 20.269531 26.332031 19.570312 27.035156 18.703125 27.035156 C 17.835938 27.035156 17.136719 26.332031 17.136719 25.46875 C 17.136719 24.601562 17.835938 23.902344 18.703125 23.902344 " fill-opacity="1" fill-rule="evenodd"/><path fill="#32a9b4" d="M 18.765625 23.902344 C 19.601562 23.933594 20.269531 24.621094 20.269531 25.46875 C 20.269531 26.3125 19.601562 27.003906 18.765625 27.035156 C 17.925781 27.003906 17.257812 26.3125 17.257812 25.46875 C 17.257812 24.621094 17.925781 23.933594 18.765625 23.902344 " fill-opacity="1" fill-rule="evenodd"/></g><g clip-path="url(#id9)"><path fill="#12899c" d="M 20.269531 25.550781 C 20.269531 25.578125 20.265625 25.609375 20.261719 25.636719 L 18.824219 25.636719 L 18.824219 25.550781 L 20.269531 25.550781 " fill-opacity="1" fill-rule="evenodd"/></g><g clip-path="url(#id10)"><path fill="#12899c" d="M 18.894531 27.027344 C 18.859375 27.027344 18.820312 27.03125 18.785156 27.035156 L 18.785156 25.550781 L 18.894531 25.550781 Z M 18.785156 23.902344 C 18.820312 23.902344 18.859375 23.90625 18.894531 23.910156 L 18.894531 25.386719 L 18.785156 25.386719 L 18.785156 23.902344 " fill-opacity="1" fill-rule="evenodd"/><path fill="#dadcd8" d="M 18.621094 23.839844 L 18.785156 23.839844 L 18.785156 27.097656 L 18.621094 27.097656 L 18.621094 23.839844 " fill-opacity="1" fill-rule="evenodd"/></g><g clip-path="url(#id11)"><path fill="#dadcd8" d="M 20.332031 25.386719 L 20.332031 25.550781 L 17.074219 25.550781 L 17.074219 25.386719 L 20.332031 25.386719 " fill-opacity="1" fill-rule="evenodd"/></g><path fill="#12899c" d="M 17.136719 25.550781 L 18.621094 25.550781 L 18.621094 25.636719 L 17.214844 25.636719 L 17.136719 25.550781 " fill-opacity="1" fill-rule="evenodd"/><g clip-path="url(#id12)"><path fill="#ffffff" d="M 7.484375 4.875 C 7.484375 5.023438 7.457031 5.167969 7.398438 5.304688 C 7.339844 5.441406 7.261719 5.566406 7.15625 5.671875 C 7.050781 5.777344 6.925781 5.855469 6.789062 5.914062 C 6.652344 5.972656 6.507812 6 6.359375 6 C 6.210938 6 6.066406 5.972656 5.929688 5.914062 C 5.789062 5.855469 5.667969 5.777344 5.5625 5.671875 C 5.457031 5.566406 5.378906 5.441406 5.320312 5.304688 C 5.261719 5.167969 5.234375 5.023438 5.234375 4.875 C 5.234375 4.726562 5.261719 4.582031 5.320312 4.445312 C 5.378906 4.308594 5.457031 4.183594 5.5625 4.078125 C 5.667969 3.972656 5.789062 3.894531 5.929688 3.835938 C 6.066406 3.777344 6.210938 3.75 6.359375 3.75 C 6.507812 3.75 6.652344 3.777344 6.789062 3.835938 C 6.925781 3.894531 7.050781 3.972656 7.15625 4.078125 C 7.261719 4.183594 7.339844 4.308594 7.398438 4.445312 C 7.457031 4.582031 7.484375 4.726562 7.484375 4.875 Z M 7.484375 4.875 " fill-opacity="1" fill-rule="nonzero"/></g><g clip-path="url(#id13)"><path fill="#ffffff" d="M 10.734375 4.875 C 10.734375 5.023438 10.707031 5.167969 10.648438 5.304688 C 10.59375 5.441406 10.511719 5.566406 10.40625 5.671875 C 10.300781 5.777344 10.179688 5.855469 10.039062 5.914062 C 9.902344 5.972656 9.757812 6 9.609375 6 C 9.460938 6 9.316406 5.972656 9.179688 5.914062 C 9.042969 5.855469 8.921875 5.777344 8.816406 5.671875 C 8.710938 5.566406 8.628906 5.441406 8.570312 5.304688 C 8.511719 5.167969 8.484375 5.023438 8.484375 4.875 C 8.484375 4.726562 8.511719 4.582031 8.570312 4.445312 C 8.628906 4.308594 8.710938 4.183594 8.816406 4.078125 C 8.921875 3.972656 9.042969 3.894531 9.179688 3.835938 C 9.316406 3.777344 9.460938 3.75 9.609375 3.75 C 9.757812 3.75 9.902344 3.777344 10.039062 3.835938 C 10.179688 3.894531 10.300781 3.972656 10.40625 4.078125 C 10.511719 4.183594 10.59375 4.308594 10.648438 4.445312 C 10.707031 4.582031 10.734375 4.726562 10.734375 4.875 Z M 10.734375 4.875 " fill-opacity="1" fill-rule="nonzero"/></g><g clip-path="url(#id14)"><path fill="#ffffff" d="M 14.015625 4.875 C 14.015625 5.023438 13.988281 5.167969 13.929688 5.304688 C 13.871094 5.441406 13.792969 5.566406 13.6875 5.671875 C 13.582031 5.777344 13.460938 5.855469 13.320312 5.914062 C 13.183594 5.972656 13.039062 6 12.890625 6 C 12.742188 6 12.597656 5.972656 12.460938 5.914062 C 12.324219 5.855469 12.199219 5.777344 12.09375 5.671875 C 11.988281 5.566406 11.910156 5.441406 11.851562 5.304688 C 11.792969 5.167969 11.765625 5.023438 11.765625 4.875 C 11.765625 4.726562 11.792969 4.582031 11.851562 4.445312 C 11.910156 4.308594 11.988281 4.183594 12.09375 4.078125 C 12.199219 3.972656 12.324219 3.894531 12.460938 3.835938 C 12.597656 3.777344 12.742188 3.75 12.890625 3.75 C 13.039062 3.75 13.183594 3.777344 13.320312 3.835938 C 13.460938 3.894531 13.582031 3.972656 13.6875 4.078125 C 13.792969 4.183594 13.871094 4.308594 13.929688 4.445312 C 13.988281 4.582031 14.015625 4.726562 14.015625 4.875 Z M 14.015625 4.875 " fill-opacity="1" fill-rule="nonzero"/></g></svg>