<svg xmlns="http://www.w3.org/2000/svg" xmlns:xlink="http://www.w3.org/1999/xlink" width="50" zoomAndPan="magnify" viewBox="0 0 37.5 37.499999" height="50" preserveAspectRatio="xMidYMid meet" version="1.0"><defs><clipPath id="id1"><path d="M 10 34 L 28 34 L 28 35.667969 L 10 35.667969 Z M 10 34 " clip-rule="nonzero"/></clipPath><clipPath id="id2"><path d="M 27.707031 34.839844 C 27.707031 34.894531 27.652344 34.945312 27.539062 35 C 27.425781 35.054688 27.257812 35.105469 27.035156 35.15625 C 26.816406 35.207031 26.542969 35.253906 26.222656 35.300781 C 25.898438 35.34375 25.535156 35.386719 25.125 35.425781 C 24.714844 35.464844 24.269531 35.496094 23.789062 35.527344 C 23.304688 35.558594 22.796875 35.585938 22.261719 35.605469 C 21.726562 35.625 21.175781 35.640625 20.609375 35.652344 C 20.039062 35.664062 19.464844 35.667969 18.886719 35.667969 C 18.308594 35.667969 17.734375 35.664062 17.164062 35.652344 C 16.597656 35.640625 16.046875 35.625 15.511719 35.605469 C 14.976562 35.585938 14.46875 35.558594 13.984375 35.527344 C 13.503906 35.496094 13.058594 35.464844 12.648438 35.425781 C 12.238281 35.386719 11.875 35.34375 11.550781 35.300781 C 11.230469 35.253906 10.957031 35.207031 10.738281 35.15625 C 10.515625 35.105469 10.347656 35.054688 10.234375 35 C 10.121094 34.945312 10.066406 34.894531 10.066406 34.839844 C 10.066406 34.785156 10.121094 34.730469 10.234375 34.675781 C 10.347656 34.625 10.515625 34.570312 10.738281 34.519531 C 10.957031 34.472656 11.230469 34.421875 11.550781 34.378906 C 11.875 34.332031 12.238281 34.289062 12.648438 34.25 C 13.058594 34.214844 13.503906 34.179688 13.984375 34.148438 C 14.46875 34.117188 14.976562 34.09375 15.511719 34.070312 C 16.046875 34.050781 16.597656 34.035156 17.164062 34.023438 C 17.734375 34.015625 18.308594 34.007812 18.886719 34.007812 C 19.464844 34.007812 20.039062 34.015625 20.609375 34.023438 C 21.175781 34.035156 21.726562 34.050781 22.261719 34.070312 C 22.796875 34.09375 23.304688 34.117188 23.789062 34.148438 C 24.269531 34.179688 24.714844 34.214844 25.125 34.25 C 25.535156 34.289062 25.898438 34.332031 26.222656 34.378906 C 26.542969 34.421875 26.816406 34.472656 27.035156 34.519531 C 27.257812 34.570312 27.425781 34.625 27.539062 34.675781 C 27.652344 34.730469 27.707031 34.785156 27.707031 34.839844 Z M 27.707031 34.839844 " clip-rule="nonzero"/></clipPath><radialGradient gradientTransform="matrix(1.834251, 0, 0, 0.165749, 4.480559, 31.606793)" gradientUnits="userSpaceOnUse" r="3.412655" cx="7.853783" id="id3" cy="19.497017" fx="7.853783" fy="19.497017"><stop stop-opacity="1" stop-color="rgb(0.195312%, 0.195312%, 0.195312%)" offset="0"/><stop stop-opacity="1" stop-color="rgb(0.585938%, 0.585938%, 0.585938%)" offset="0.00390625"/><stop stop-opacity="1" stop-color="rgb(0.976562%, 0.976562%, 0.976562%)" offset="0.0078125"/><stop stop-opacity="1" stop-color="rgb(1.367188%, 1.367188%, 1.367188%)" offset="0.0117188"/><stop stop-opacity="1" stop-color="rgb(1.757812%, 1.757812%, 1.757812%)" offset="0.015625"/><stop stop-opacity="1" stop-color="rgb(2.148438%, 2.148438%, 2.148438%)" offset="0.0195312"/><stop stop-opacity="1" stop-color="rgb(2.539062%, 2.539062%, 2.539062%)" offset="0.0234375"/><stop stop-opacity="1" stop-color="rgb(2.929688%, 2.929688%, 2.929688%)" offset="0.0273438"/><stop stop-opacity="1" stop-color="rgb(3.320312%, 3.320312%, 3.320312%)" offset="0.03125"/><stop stop-opacity="1" stop-color="rgb(3.710938%, 3.710938%, 3.710938%)" offset="0.0351562"/><stop stop-opacity="1" stop-color="rgb(4.101562%, 4.101562%, 4.101562%)" offset="0.0390625"/><stop stop-opacity="1" stop-color="rgb(4.492188%, 4.492188%, 4.492188%)" offset="0.0429688"/><stop stop-opacity="1" stop-color="rgb(4.882812%, 4.882812%, 4.882812%)" offset="0.046875"/><stop stop-opacity="1" stop-color="rgb(5.273438%, 5.273438%, 5.273438%)" offset="0.0507812"/><stop stop-opacity="1" stop-color="rgb(5.664062%, 5.664062%, 5.664062%)" offset="0.0546875"/><stop stop-opacity="1" stop-color="rgb(6.054688%, 6.054688%, 6.054688%)" offset="0.0585938"/><stop stop-opacity="1" stop-color="rgb(6.445312%, 6.445312%, 6.445312%)" offset="0.0625"/><stop stop-opacity="1" stop-color="rgb(6.835938%, 6.835938%, 6.835938%)" offset="0.0664062"/><stop stop-opacity="1" stop-color="rgb(7.226562%, 7.226562%, 7.226562%)" offset="0.0703125"/><stop stop-opacity="1" stop-color="rgb(7.617188%, 7.617188%, 7.617188%)" offset="0.0742188"/><stop stop-opacity="1" stop-color="rgb(8.007812%, 8.007812%, 8.007812%)" offset="0.078125"/><stop stop-opacity="1" stop-color="rgb(8.398438%, 8.398438%, 8.398438%)" offset="0.0820312"/><stop stop-opacity="1" stop-color="rgb(8.789062%, 8.789062%, 8.789062%)" offset="0.0859375"/><stop stop-opacity="1" stop-color="rgb(9.179688%, 9.179688%, 9.179688%)" offset="0.0898438"/><stop stop-opacity="1" stop-color="rgb(9.570312%, 9.570312%, 9.570312%)" offset="0.09375"/><stop stop-opacity="1" stop-color="rgb(9.960938%, 9.960938%, 9.960938%)" offset="0.0976562"/><stop stop-opacity="1" stop-color="rgb(10.351562%, 10.351562%, 10.351562%)" offset="0.101562"/><stop stop-opacity="1" stop-color="rgb(10.742188%, 10.742188%, 10.742188%)" offset="0.105469"/><stop stop-opacity="1" stop-color="rgb(11.132812%, 11.132812%, 11.132812%)" offset="0.109375"/><stop stop-opacity="1" stop-color="rgb(11.523438%, 11.523438%, 11.523438%)" offset="0.113281"/><stop stop-opacity="1" stop-color="rgb(11.914062%, 11.914062%, 11.914062%)" offset="0.117188"/><stop stop-opacity="1" stop-color="rgb(12.304688%, 12.304688%, 12.304688%)" offset="0.121094"/><stop stop-opacity="1" stop-color="rgb(12.695312%, 12.695312%, 12.695312%)" offset="0.125"/><stop stop-opacity="1" stop-color="rgb(13.085938%, 13.085938%, 13.085938%)" offset="0.128906"/><stop stop-opacity="1" stop-color="rgb(13.476562%, 13.476562%, 13.476562%)" offset="0.132812"/><stop stop-opacity="1" stop-color="rgb(13.867188%, 13.867188%, 13.867188%)" offset="0.136719"/><stop stop-opacity="1" stop-color="rgb(14.257812%, 14.257812%, 14.257812%)" offset="0.140625"/><stop stop-opacity="1" stop-color="rgb(14.648438%, 14.648438%, 14.648438%)" offset="0.144531"/><stop stop-opacity="1" stop-color="rgb(15.039062%, 15.039062%, 15.039062%)" offset="0.148438"/><stop stop-opacity="1" stop-color="rgb(15.429688%, 15.429688%, 15.429688%)" offset="0.152344"/><stop stop-opacity="1" stop-color="rgb(15.820312%, 15.820312%, 15.820312%)" offset="0.15625"/><stop stop-opacity="1" stop-color="rgb(16.210938%, 16.210938%, 16.210938%)" offset="0.160156"/><stop stop-opacity="1" stop-color="rgb(16.601562%, 16.601562%, 16.601562%)" offset="0.164062"/><stop stop-opacity="1" stop-color="rgb(16.992188%, 16.992188%, 16.992188%)" offset="0.167969"/><stop stop-opacity="1" stop-color="rgb(17.382812%, 17.382812%, 17.382812%)" offset="0.171875"/><stop stop-opacity="1" stop-color="rgb(17.773438%, 17.773438%, 17.773438%)" offset="0.175781"/><stop stop-opacity="1" stop-color="rgb(18.164062%, 18.164062%, 18.164062%)" offset="0.179688"/><stop stop-opacity="1" stop-color="rgb(18.554688%, 18.554688%, 18.554688%)" offset="0.183594"/><stop stop-opacity="1" stop-color="rgb(18.945312%, 18.945312%, 18.945312%)" offset="0.1875"/><stop stop-opacity="1" stop-color="rgb(19.335938%, 19.335938%, 19.335938%)" offset="0.191406"/><stop stop-opacity="1" stop-color="rgb(19.726562%, 19.726562%, 19.726562%)" offset="0.195312"/><stop stop-opacity="1" stop-color="rgb(20.117188%, 20.117188%, 20.117188%)" offset="0.199219"/><stop stop-opacity="1" stop-color="rgb(20.507812%, 20.507812%, 20.507812%)" offset="0.203125"/><stop stop-opacity="1" stop-color="rgb(20.898438%, 20.898438%, 20.898438%)" offset="0.207031"/><stop stop-opacity="1" stop-color="rgb(21.289062%, 21.289062%, 21.289062%)" offset="0.210938"/><stop stop-opacity="1" stop-color="rgb(21.679688%, 21.679688%, 21.679688%)" offset="0.214844"/><stop stop-opacity="1" stop-color="rgb(22.070312%, 22.070312%, 22.070312%)" offset="0.21875"/><stop stop-opacity="1" stop-color="rgb(22.460938%, 22.460938%, 22.460938%)" offset="0.222656"/><stop stop-opacity="1" stop-color="rgb(22.851562%, 22.851562%, 22.851562%)" offset="0.226562"/><stop stop-opacity="1" stop-color="rgb(23.242188%, 23.242188%, 23.242188%)" offset="0.230469"/><stop stop-opacity="1" stop-color="rgb(23.632812%, 23.632812%, 23.632812%)" offset="0.234375"/><stop stop-opacity="1" stop-color="rgb(24.023438%, 24.023438%, 24.023438%)" offset="0.238281"/><stop stop-opacity="1" stop-color="rgb(24.414062%, 24.414062%, 24.414062%)" offset="0.242188"/><stop stop-opacity="1" stop-color="rgb(24.804688%, 24.804688%, 24.804688%)" offset="0.246094"/><stop stop-opacity="1" stop-color="rgb(25.195312%, 25.195312%, 25.195312%)" offset="0.25"/><stop stop-opacity="1" stop-color="rgb(25.585938%, 25.585938%, 25.585938%)" offset="0.253906"/><stop stop-opacity="1" stop-color="rgb(25.976562%, 25.976562%, 25.976562%)" offset="0.257812"/><stop stop-opacity="1" stop-color="rgb(26.367188%, 26.367188%, 26.367188%)" offset="0.261719"/><stop stop-opacity="1" stop-color="rgb(26.757812%, 26.757812%, 26.757812%)" offset="0.265625"/><stop stop-opacity="1" stop-color="rgb(27.148438%, 27.148438%, 27.148438%)" offset="0.269531"/><stop stop-opacity="1" stop-color="rgb(27.539062%, 27.539062%, 27.539062%)" offset="0.273438"/><stop stop-opacity="1" stop-color="rgb(27.929688%, 27.929688%, 27.929688%)" offset="0.277344"/><stop stop-opacity="1" stop-color="rgb(28.320312%, 28.320312%, 28.320312%)" offset="0.28125"/><stop stop-opacity="1" stop-color="rgb(28.710938%, 28.710938%, 28.710938%)" offset="0.285156"/><stop stop-opacity="1" stop-color="rgb(29.101562%, 29.101562%, 29.101562%)" offset="0.289062"/><stop stop-opacity="1" stop-color="rgb(29.492188%, 29.492188%, 29.492188%)" offset="0.292969"/><stop stop-opacity="1" stop-color="rgb(29.882812%, 29.882812%, 29.882812%)" offset="0.296875"/><stop stop-opacity="1" stop-color="rgb(30.273438%, 30.273438%, 30.273438%)" offset="0.300781"/><stop stop-opacity="1" stop-color="rgb(30.664062%, 30.664062%, 30.664062%)" offset="0.304688"/><stop stop-opacity="1" stop-color="rgb(31.054688%, 31.054688%, 31.054688%)" offset="0.308594"/><stop stop-opacity="1" stop-color="rgb(31.445312%, 31.445312%, 31.445312%)" offset="0.3125"/><stop stop-opacity="1" stop-color="rgb(31.835938%, 31.835938%, 31.835938%)" offset="0.316406"/><stop stop-opacity="1" stop-color="rgb(32.226562%, 32.226562%, 32.226562%)" offset="0.320312"/><stop stop-opacity="1" stop-color="rgb(32.617188%, 32.617188%, 32.617188%)" offset="0.324219"/><stop stop-opacity="1" stop-color="rgb(33.007812%, 33.007812%, 33.007812%)" offset="0.328125"/><stop stop-opacity="1" stop-color="rgb(33.398438%, 33.398438%, 33.398438%)" offset="0.332031"/><stop stop-opacity="1" stop-color="rgb(33.789062%, 33.789062%, 33.789062%)" offset="0.335938"/><stop stop-opacity="1" stop-color="rgb(34.179688%, 34.179688%, 34.179688%)" offset="0.339844"/><stop stop-opacity="1" stop-color="rgb(34.570312%, 34.570312%, 34.570312%)" offset="0.34375"/><stop stop-opacity="1" stop-color="rgb(34.960938%, 34.960938%, 34.960938%)" offset="0.347656"/><stop stop-opacity="1" stop-color="rgb(35.351562%, 35.351562%, 35.351562%)" offset="0.351562"/><stop stop-opacity="1" stop-color="rgb(35.742188%, 35.742188%, 35.742188%)" offset="0.355469"/><stop stop-opacity="1" stop-color="rgb(36.132812%, 36.132812%, 36.132812%)" offset="0.359375"/><stop stop-opacity="1" stop-color="rgb(36.523438%, 36.523438%, 36.523438%)" offset="0.363281"/><stop stop-opacity="1" stop-color="rgb(36.914062%, 36.914062%, 36.914062%)" offset="0.367188"/><stop stop-opacity="1" stop-color="rgb(37.304688%, 37.304688%, 37.304688%)" offset="0.371094"/><stop stop-opacity="1" stop-color="rgb(37.695312%, 37.695312%, 37.695312%)" offset="0.375"/><stop stop-opacity="1" stop-color="rgb(38.085938%, 38.085938%, 38.085938%)" offset="0.378906"/><stop stop-opacity="1" stop-color="rgb(38.476562%, 38.476562%, 38.476562%)" offset="0.382812"/><stop stop-opacity="1" stop-color="rgb(38.867188%, 38.867188%, 38.867188%)" offset="0.386719"/><stop stop-opacity="1" stop-color="rgb(39.257812%, 39.257812%, 39.257812%)" offset="0.390625"/><stop stop-opacity="1" stop-color="rgb(39.648438%, 39.648438%, 39.648438%)" offset="0.394531"/><stop stop-opacity="1" stop-color="rgb(40.039062%, 40.039062%, 40.039062%)" offset="0.398438"/><stop stop-opacity="1" stop-color="rgb(40.429688%, 40.429688%, 40.429688%)" offset="0.402344"/><stop stop-opacity="1" stop-color="rgb(40.820312%, 40.820312%, 40.820312%)" offset="0.40625"/><stop stop-opacity="1" stop-color="rgb(41.210938%, 41.210938%, 41.210938%)" offset="0.410156"/><stop stop-opacity="1" stop-color="rgb(41.601562%, 41.601562%, 41.601562%)" offset="0.414062"/><stop stop-opacity="1" stop-color="rgb(41.992188%, 41.992188%, 41.992188%)" offset="0.417969"/><stop stop-opacity="1" stop-color="rgb(42.382812%, 42.382812%, 42.382812%)" offset="0.421875"/><stop stop-opacity="1" stop-color="rgb(42.773438%, 42.773438%, 42.773438%)" offset="0.425781"/><stop stop-opacity="1" stop-color="rgb(43.164062%, 43.164062%, 43.164062%)" offset="0.429688"/><stop stop-opacity="1" stop-color="rgb(43.554688%, 43.554688%, 43.554688%)" offset="0.433594"/><stop stop-opacity="1" stop-color="rgb(43.945312%, 43.945312%, 43.945312%)" offset="0.4375"/><stop stop-opacity="1" stop-color="rgb(44.335938%, 44.335938%, 44.335938%)" offset="0.441406"/><stop stop-opacity="1" stop-color="rgb(44.726562%, 44.726562%, 44.726562%)" offset="0.445312"/><stop stop-opacity="1" stop-color="rgb(45.117188%, 45.117188%, 45.117188%)" offset="0.449219"/><stop stop-opacity="1" stop-color="rgb(45.507812%, 45.507812%, 45.507812%)" offset="0.453125"/><stop stop-opacity="1" stop-color="rgb(45.898438%, 45.898438%, 45.898438%)" offset="0.457031"/><stop stop-opacity="1" stop-color="rgb(46.289062%, 46.289062%, 46.289062%)" offset="0.460938"/><stop stop-opacity="1" stop-color="rgb(46.679688%, 46.679688%, 46.679688%)" offset="0.464844"/><stop stop-opacity="1" stop-color="rgb(47.070312%, 47.070312%, 47.070312%)" offset="0.46875"/><stop stop-opacity="1" stop-color="rgb(47.460938%, 47.460938%, 47.460938%)" offset="0.472656"/><stop stop-opacity="1" stop-color="rgb(47.851562%, 47.851562%, 47.851562%)" offset="0.476562"/><stop stop-opacity="1" stop-color="rgb(48.242188%, 48.242188%, 48.242188%)" offset="0.480469"/><stop stop-opacity="1" stop-color="rgb(48.632812%, 48.632812%, 48.632812%)" offset="0.484375"/><stop stop-opacity="1" stop-color="rgb(49.023438%, 49.023438%, 49.023438%)" offset="0.488281"/><stop stop-opacity="1" stop-color="rgb(49.414062%, 49.414062%, 49.414062%)" offset="0.492188"/><stop stop-opacity="1" stop-color="rgb(49.804688%, 49.804688%, 49.804688%)" offset="0.496094"/><stop stop-opacity="1" stop-color="rgb(50.195312%, 50.195312%, 50.195312%)" offset="0.5"/><stop stop-opacity="1" stop-color="rgb(50.585938%, 50.585938%, 50.585938%)" offset="0.503906"/><stop stop-opacity="1" stop-color="rgb(50.976562%, 50.976562%, 50.976562%)" offset="0.507812"/><stop stop-opacity="1" stop-color="rgb(51.367188%, 51.367188%, 51.367188%)" offset="0.511719"/><stop stop-opacity="1" stop-color="rgb(51.757812%, 51.757812%, 51.757812%)" offset="0.515625"/><stop stop-opacity="1" stop-color="rgb(52.148438%, 52.148438%, 52.148438%)" offset="0.519531"/><stop stop-opacity="1" stop-color="rgb(52.539062%, 52.539062%, 52.539062%)" offset="0.523438"/><stop stop-opacity="1" stop-color="rgb(52.929688%, 52.929688%, 52.929688%)" offset="0.527344"/><stop stop-opacity="1" stop-color="rgb(53.320312%, 53.320312%, 53.320312%)" offset="0.53125"/><stop stop-opacity="1" stop-color="rgb(53.710938%, 53.710938%, 53.710938%)" offset="0.535156"/><stop stop-opacity="1" stop-color="rgb(54.101562%, 54.101562%, 54.101562%)" offset="0.539062"/><stop stop-opacity="1" stop-color="rgb(54.492188%, 54.492188%, 54.492188%)" offset="0.542969"/><stop stop-opacity="1" stop-color="rgb(54.882812%, 54.882812%, 54.882812%)" offset="0.546875"/><stop stop-opacity="1" stop-color="rgb(55.273438%, 55.273438%, 55.273438%)" offset="0.550781"/><stop stop-opacity="1" stop-color="rgb(55.664062%, 55.664062%, 55.664062%)" offset="0.554688"/><stop stop-opacity="1" stop-color="rgb(56.054688%, 56.054688%, 56.054688%)" offset="0.558594"/><stop stop-opacity="1" stop-color="rgb(56.445312%, 56.445312%, 56.445312%)" offset="0.5625"/><stop stop-opacity="1" stop-color="rgb(56.835938%, 56.835938%, 56.835938%)" offset="0.566406"/><stop stop-opacity="1" stop-color="rgb(57.226562%, 57.226562%, 57.226562%)" offset="0.570312"/><stop stop-opacity="1" stop-color="rgb(57.617188%, 57.617188%, 57.617188%)" offset="0.574219"/><stop stop-opacity="1" stop-color="rgb(58.007812%, 58.007812%, 58.007812%)" offset="0.578125"/><stop stop-opacity="1" stop-color="rgb(58.398438%, 58.398438%, 58.398438%)" offset="0.582031"/><stop stop-opacity="1" stop-color="rgb(58.789062%, 58.789062%, 58.789062%)" offset="0.585938"/><stop stop-opacity="1" stop-color="rgb(59.179688%, 59.179688%, 59.179688%)" offset="0.589844"/><stop stop-opacity="1" stop-color="rgb(59.570312%, 59.570312%, 59.570312%)" offset="0.59375"/><stop stop-opacity="1" stop-color="rgb(59.960938%, 59.960938%, 59.960938%)" offset="0.597656"/><stop stop-opacity="1" stop-color="rgb(60.351562%, 60.351562%, 60.351562%)" offset="0.601562"/><stop stop-opacity="1" stop-color="rgb(60.742188%, 60.742188%, 60.742188%)" offset="0.605469"/><stop stop-opacity="1" stop-color="rgb(61.132812%, 61.132812%, 61.132812%)" offset="0.609375"/><stop stop-opacity="1" stop-color="rgb(61.523438%, 61.523438%, 61.523438%)" offset="0.613281"/><stop stop-opacity="1" stop-color="rgb(61.914062%, 61.914062%, 61.914062%)" offset="0.617188"/><stop stop-opacity="1" stop-color="rgb(62.304688%, 62.304688%, 62.304688%)" offset="0.621094"/><stop stop-opacity="1" stop-color="rgb(62.695312%, 62.695312%, 62.695312%)" offset="0.625"/><stop stop-opacity="1" stop-color="rgb(63.085938%, 63.085938%, 63.085938%)" offset="0.628906"/><stop stop-opacity="1" stop-color="rgb(63.476562%, 63.476562%, 63.476562%)" offset="0.632812"/><stop stop-opacity="1" stop-color="rgb(63.867188%, 63.867188%, 63.867188%)" offset="0.636719"/><stop stop-opacity="1" stop-color="rgb(64.257812%, 64.257812%, 64.257812%)" offset="0.640625"/><stop stop-opacity="1" stop-color="rgb(64.648438%, 64.648438%, 64.648438%)" offset="0.644531"/><stop stop-opacity="1" stop-color="rgb(65.039062%, 65.039062%, 65.039062%)" offset="0.648438"/><stop stop-opacity="1" stop-color="rgb(65.429688%, 65.429688%, 65.429688%)" offset="0.652344"/><stop stop-opacity="1" stop-color="rgb(65.820312%, 65.820312%, 65.820312%)" offset="0.65625"/><stop stop-opacity="1" stop-color="rgb(66.210938%, 66.210938%, 66.210938%)" offset="0.660156"/><stop stop-opacity="1" stop-color="rgb(66.601562%, 66.601562%, 66.601562%)" offset="0.664062"/><stop stop-opacity="1" stop-color="rgb(66.992188%, 66.992188%, 66.992188%)" offset="0.667969"/><stop stop-opacity="1" stop-color="rgb(67.382812%, 67.382812%, 67.382812%)" offset="0.671875"/><stop stop-opacity="1" stop-color="rgb(67.773438%, 67.773438%, 67.773438%)" offset="0.675781"/><stop stop-opacity="1" stop-color="rgb(68.164062%, 68.164062%, 68.164062%)" offset="0.679688"/><stop stop-opacity="1" stop-color="rgb(68.554688%, 68.554688%, 68.554688%)" offset="0.683594"/><stop stop-opacity="1" stop-color="rgb(68.945312%, 68.945312%, 68.945312%)" offset="0.6875"/><stop stop-opacity="1" stop-color="rgb(69.335938%, 69.335938%, 69.335938%)" offset="0.691406"/><stop stop-opacity="1" stop-color="rgb(69.726562%, 69.726562%, 69.726562%)" offset="0.695312"/><stop stop-opacity="1" stop-color="rgb(70.117188%, 70.117188%, 70.117188%)" offset="0.699219"/><stop stop-opacity="1" stop-color="rgb(70.507812%, 70.507812%, 70.507812%)" offset="0.703125"/><stop stop-opacity="1" stop-color="rgb(70.898438%, 70.898438%, 70.898438%)" offset="0.707031"/><stop stop-opacity="1" stop-color="rgb(71.289062%, 71.289062%, 71.289062%)" offset="0.710938"/><stop stop-opacity="1" stop-color="rgb(71.679688%, 71.679688%, 71.679688%)" offset="0.714844"/><stop stop-opacity="1" stop-color="rgb(72.070312%, 72.070312%, 72.070312%)" offset="0.71875"/><stop stop-opacity="1" stop-color="rgb(72.460938%, 72.460938%, 72.460938%)" offset="0.722656"/><stop stop-opacity="1" stop-color="rgb(72.851562%, 72.851562%, 72.851562%)" offset="0.726562"/><stop stop-opacity="1" stop-color="rgb(73.242188%, 73.242188%, 73.242188%)" offset="0.730469"/><stop stop-opacity="1" stop-color="rgb(73.632812%, 73.632812%, 73.632812%)" offset="0.734375"/><stop stop-opacity="1" stop-color="rgb(74.023438%, 74.023438%, 74.023438%)" offset="0.738281"/><stop stop-opacity="1" stop-color="rgb(74.414062%, 74.414062%, 74.414062%)" offset="0.742188"/><stop stop-opacity="1" stop-color="rgb(74.804688%, 74.804688%, 74.804688%)" offset="0.746094"/><stop stop-opacity="1" stop-color="rgb(75.195312%, 75.195312%, 75.195312%)" offset="0.75"/><stop stop-opacity="1" stop-color="rgb(75.585938%, 75.585938%, 75.585938%)" offset="0.753906"/><stop stop-opacity="1" stop-color="rgb(75.976562%, 75.976562%, 75.976562%)" offset="0.757812"/><stop stop-opacity="1" stop-color="rgb(76.367188%, 76.367188%, 76.367188%)" offset="0.761719"/><stop stop-opacity="1" stop-color="rgb(76.757812%, 76.757812%, 76.757812%)" offset="0.765625"/><stop stop-opacity="1" stop-color="rgb(77.148438%, 77.148438%, 77.148438%)" offset="0.769531"/><stop stop-opacity="1" stop-color="rgb(77.539062%, 77.539062%, 77.539062%)" offset="0.773438"/><stop stop-opacity="1" stop-color="rgb(77.929688%, 77.929688%, 77.929688%)" offset="0.777344"/><stop stop-opacity="1" stop-color="rgb(78.320312%, 78.320312%, 78.320312%)" offset="0.78125"/><stop stop-opacity="1" stop-color="rgb(78.710938%, 78.710938%, 78.710938%)" offset="0.785156"/><stop stop-opacity="1" stop-color="rgb(79.101562%, 79.101562%, 79.101562%)" offset="0.789062"/><stop stop-opacity="1" stop-color="rgb(79.492188%, 79.492188%, 79.492188%)" offset="0.792969"/><stop stop-opacity="1" stop-color="rgb(79.882812%, 79.882812%, 79.882812%)" offset="0.796875"/><stop stop-opacity="1" stop-color="rgb(80.273438%, 80.273438%, 80.273438%)" offset="0.800781"/><stop stop-opacity="1" stop-color="rgb(80.664062%, 80.664062%, 80.664062%)" offset="0.804688"/><stop stop-opacity="1" stop-color="rgb(81.054688%, 81.054688%, 81.054688%)" offset="0.808594"/><stop stop-opacity="1" stop-color="rgb(81.445312%, 81.445312%, 81.445312%)" offset="0.8125"/><stop stop-opacity="1" stop-color="rgb(81.835938%, 81.835938%, 81.835938%)" offset="0.816406"/><stop stop-opacity="1" stop-color="rgb(82.226562%, 82.226562%, 82.226562%)" offset="0.820312"/><stop stop-opacity="1" stop-color="rgb(82.617188%, 82.617188%, 82.617188%)" offset="0.824219"/><stop stop-opacity="1" stop-color="rgb(83.007812%, 83.007812%, 83.007812%)" offset="0.828125"/><stop stop-opacity="1" stop-color="rgb(83.398438%, 83.398438%, 83.398438%)" offset="0.832031"/><stop stop-opacity="1" stop-color="rgb(83.789062%, 83.789062%, 83.789062%)" offset="0.835938"/><stop stop-opacity="1" stop-color="rgb(84.179688%, 84.179688%, 84.179688%)" offset="0.839844"/><stop stop-opacity="1" stop-color="rgb(84.570312%, 84.570312%, 84.570312%)" offset="0.84375"/><stop stop-opacity="1" stop-color="rgb(84.960938%, 84.960938%, 84.960938%)" offset="0.847656"/><stop stop-opacity="1" stop-color="rgb(85.351562%, 85.351562%, 85.351562%)" offset="0.851562"/><stop stop-opacity="1" stop-color="rgb(85.742188%, 85.742188%, 85.742188%)" offset="0.855469"/><stop stop-opacity="1" stop-color="rgb(86.132812%, 86.132812%, 86.132812%)" offset="0.859375"/><stop stop-opacity="1" stop-color="rgb(86.523438%, 86.523438%, 86.523438%)" offset="0.863281"/><stop stop-opacity="1" stop-color="rgb(86.914062%, 86.914062%, 86.914062%)" offset="0.867188"/><stop stop-opacity="1" stop-color="rgb(87.304688%, 87.304688%, 87.304688%)" offset="0.871094"/><stop stop-opacity="1" stop-color="rgb(87.695312%, 87.695312%, 87.695312%)" offset="0.875"/><stop stop-opacity="1" stop-color="rgb(88.085938%, 88.085938%, 88.085938%)" offset="0.878906"/><stop stop-opacity="1" stop-color="rgb(88.476562%, 88.476562%, 88.476562%)" offset="0.882812"/><stop stop-opacity="1" stop-color="rgb(88.867188%, 88.867188%, 88.867188%)" offset="0.886719"/><stop stop-opacity="1" stop-color="rgb(89.257812%, 89.257812%, 89.257812%)" offset="0.890625"/><stop stop-opacity="1" stop-color="rgb(89.648438%, 89.648438%, 89.648438%)" offset="0.894531"/><stop stop-opacity="1" stop-color="rgb(90.039062%, 90.039062%, 90.039062%)" offset="0.898438"/><stop stop-opacity="1" stop-color="rgb(90.429688%, 90.429688%, 90.429688%)" offset="0.902344"/><stop stop-opacity="1" stop-color="rgb(90.820312%, 90.820312%, 90.820312%)" offset="0.90625"/><stop stop-opacity="1" stop-color="rgb(91.210938%, 91.210938%, 91.210938%)" offset="0.910156"/><stop stop-opacity="1" stop-color="rgb(91.601562%, 91.601562%, 91.601562%)" offset="0.914062"/><stop stop-opacity="1" stop-color="rgb(91.992188%, 91.992188%, 91.992188%)" offset="0.917969"/><stop stop-opacity="1" stop-color="rgb(92.382812%, 92.382812%, 92.382812%)" offset="0.921875"/><stop stop-opacity="1" stop-color="rgb(92.773438%, 92.773438%, 92.773438%)" offset="0.925781"/><stop stop-opacity="1" stop-color="rgb(93.164062%, 93.164062%, 93.164062%)" offset="0.929688"/><stop stop-opacity="1" stop-color="rgb(93.554688%, 93.554688%, 93.554688%)" offset="0.933594"/><stop stop-opacity="1" stop-color="rgb(93.945312%, 93.945312%, 93.945312%)" offset="0.9375"/><stop stop-opacity="1" stop-color="rgb(94.335938%, 94.335938%, 94.335938%)" offset="0.941406"/><stop stop-opacity="1" stop-color="rgb(94.726562%, 94.726562%, 94.726562%)" offset="0.945312"/><stop stop-opacity="1" stop-color="rgb(95.117188%, 95.117188%, 95.117188%)" offset="0.949219"/><stop stop-opacity="1" stop-color="rgb(95.507812%, 95.507812%, 95.507812%)" offset="0.953125"/><stop stop-opacity="1" stop-color="rgb(95.898438%, 95.898438%, 95.898438%)" offset="0.957031"/><stop stop-opacity="1" stop-color="rgb(96.289062%, 96.289062%, 96.289062%)" offset="0.960938"/><stop stop-opacity="1" stop-color="rgb(96.679688%, 96.679688%, 96.679688%)" offset="0.964844"/><stop stop-opacity="1" stop-color="rgb(97.070312%, 97.070312%, 97.070312%)" offset="0.96875"/><stop stop-opacity="1" stop-color="rgb(97.460938%, 97.460938%, 97.460938%)" offset="0.972656"/><stop stop-opacity="1" stop-color="rgb(97.851562%, 97.851562%, 97.851562%)" offset="0.976562"/><stop stop-opacity="1" stop-color="rgb(98.242188%, 98.242188%, 98.242188%)" offset="0.980469"/><stop stop-opacity="1" stop-color="rgb(98.632812%, 98.632812%, 98.632812%)" offset="0.984375"/><stop stop-opacity="1" stop-color="rgb(99.023438%, 99.023438%, 99.023438%)" offset="0.988281"/><stop stop-opacity="1" stop-color="rgb(99.414062%, 99.414062%, 99.414062%)" offset="0.992188"/><stop stop-opacity="1" stop-color="rgb(99.804688%, 99.804688%, 99.804688%)" offset="0.996094"/><stop stop-opacity="1" stop-color="rgb(100%, 100%, 100%)" offset="1"/></radialGradient><clipPath id="id4"><path d="M 18 1.917969 L 20 1.917969 L 20 7 L 18 7 Z M 18 1.917969 " clip-rule="nonzero"/></clipPath><clipPath id="id5"><path d="M 5.390625 11 L 10 11 L 10 14 L 5.390625 14 Z M 5.390625 11 " clip-rule="nonzero"/></clipPath><clipPath id="id6"><path d="M 5.390625 18 L 10 18 L 10 21 L 5.390625 21 Z M 5.390625 18 " clip-rule="nonzero"/></clipPath><clipPath id="id7"><path d="M 27 18 L 32.390625 18 L 32.390625 21 L 27 21 Z M 27 18 " clip-rule="nonzero"/></clipPath><clipPath id="id8"><path d="M 27 11 L 32.390625 11 L 32.390625 14 L 27 14 Z M 27 11 " clip-rule="nonzero"/></clipPath></defs><g clip-path="url(#id1)"><g clip-path="url(#id2)"><path fill="url(#id3)" d="M 10.066406 34.007812 L 10.066406 35.667969 L 27.707031 35.667969 L 27.707031 34.007812 Z M 10.066406 34.007812 " fill-rule="nonzero"/></g></g><path fill="#ffde00" d="M 27.539062 15.957031 C 27.539062 16.523438 27.484375 17.082031 27.375 17.632812 C 27.261719 18.1875 27.097656 18.722656 26.882812 19.242188 C 26.664062 19.765625 26.398438 20.261719 26.082031 20.730469 C 25.765625 21.199219 25.40625 21.632812 25.003906 22.03125 C 24.605469 22.429688 24.167969 22.785156 23.695312 23.097656 C 23.222656 23.410156 22.722656 23.675781 22.199219 23.890625 C 21.671875 24.105469 21.132812 24.269531 20.574219 24.378906 C 20.019531 24.492188 19.453125 24.546875 18.886719 24.546875 C 18.320312 24.546875 17.753906 24.492188 17.199219 24.378906 C 16.640625 24.269531 16.101562 24.105469 15.574219 23.890625 C 15.050781 23.675781 14.550781 23.410156 14.078125 23.097656 C 13.605469 22.785156 13.167969 22.429688 12.769531 22.03125 C 12.367188 21.632812 12.007812 21.199219 11.691406 20.730469 C 11.375 20.261719 11.109375 19.765625 10.890625 19.242188 C 10.675781 18.722656 10.511719 18.1875 10.398438 17.632812 C 10.289062 17.082031 10.234375 16.523438 10.234375 15.957031 C 10.234375 15.394531 10.289062 14.835938 10.398438 14.28125 C 10.511719 13.730469 10.675781 13.191406 10.890625 12.671875 C 11.109375 12.152344 11.375 11.65625 11.691406 11.1875 C 12.007812 10.71875 12.367188 10.285156 12.769531 9.886719 C 13.167969 9.488281 13.605469 9.132812 14.078125 8.816406 C 14.550781 8.503906 15.050781 8.238281 15.574219 8.023438 C 16.101562 7.808594 16.640625 7.644531 17.199219 7.535156 C 17.753906 7.425781 18.320312 7.371094 18.886719 7.371094 C 19.453125 7.371094 20.019531 7.425781 20.574219 7.535156 C 21.132812 7.644531 21.671875 7.808594 22.199219 8.023438 C 22.722656 8.238281 23.222656 8.503906 23.695312 8.816406 C 24.167969 9.132812 24.605469 9.488281 25.003906 9.886719 C 25.40625 10.285156 25.765625 10.71875 26.082031 11.1875 C 26.398438 11.65625 26.664062 12.152344 26.882812 12.671875 C 27.097656 13.191406 27.261719 13.730469 27.375 14.28125 C 27.484375 14.835938 27.539062 15.394531 27.539062 15.957031 Z M 27.539062 15.957031 " fill-opacity="1" fill-rule="nonzero"/><path fill="#ffffff" d="M 17.402344 10.277344 C 17.503906 10.40625 17.554688 10.570312 17.550781 10.773438 C 17.542969 10.972656 17.484375 11.195312 17.367188 11.4375 C 17.253906 11.683594 17.089844 11.929688 16.882812 12.179688 C 16.675781 12.429688 16.4375 12.660156 16.167969 12.878906 C 15.898438 13.09375 15.621094 13.277344 15.335938 13.429688 C 15.046875 13.582031 14.769531 13.6875 14.507812 13.753906 C 14.242188 13.816406 14.011719 13.828125 13.8125 13.792969 C 13.613281 13.757812 13.460938 13.679688 13.355469 13.550781 C 13.25 13.421875 13.199219 13.257812 13.207031 13.058594 C 13.210938 12.855469 13.273438 12.632812 13.386719 12.390625 C 13.503906 12.144531 13.664062 11.898438 13.871094 11.652344 C 14.082031 11.402344 14.320312 11.167969 14.585938 10.953125 C 14.855469 10.734375 15.132812 10.550781 15.421875 10.398438 C 15.710938 10.246094 15.984375 10.140625 16.25 10.078125 C 16.511719 10.015625 16.746094 10 16.945312 10.035156 C 17.144531 10.070312 17.296875 10.152344 17.402344 10.277344 Z M 17.402344 10.277344 " fill-opacity="0.5176" fill-rule="nonzero"/><g clip-path="url(#id4)"><path fill="#ffde00" d="M 18.886719 6.464844 C 18.777344 6.464844 18.6875 6.378906 18.6875 6.269531 L 18.6875 2.117188 C 18.6875 2.007812 18.777344 1.917969 18.886719 1.917969 C 18.996094 1.917969 19.085938 2.007812 19.085938 2.117188 L 19.085938 6.269531 C 19.085938 6.378906 18.996094 6.464844 18.886719 6.464844 Z M 18.886719 6.464844 " fill-opacity="1" fill-rule="nonzero"/></g><path fill="#ffb900" d="M 15.871094 6.855469 C 15.820312 6.855469 15.777344 6.824219 15.761719 6.777344 L 15.039062 4.574219 C 15.023438 4.515625 15.054688 4.453125 15.113281 4.433594 C 15.171875 4.414062 15.238281 4.445312 15.257812 4.503906 L 15.976562 6.707031 C 15.996094 6.765625 15.964844 6.832031 15.90625 6.851562 C 15.894531 6.855469 15.882812 6.855469 15.871094 6.855469 Z M 15.871094 6.855469 " fill-opacity="1" fill-rule="nonzero"/><path fill="#ffb900" d="M 10.988281 10.375 C 10.964844 10.375 10.941406 10.367188 10.921875 10.355469 L 9.03125 8.992188 C 8.980469 8.957031 8.96875 8.886719 9.007812 8.835938 C 9.042969 8.785156 9.113281 8.773438 9.167969 8.808594 L 11.054688 10.171875 C 11.105469 10.207031 11.117188 10.277344 11.078125 10.328125 C 11.058594 10.359375 11.023438 10.375 10.988281 10.375 Z M 10.988281 10.375 " fill-opacity="1" fill-rule="nonzero"/><path fill="#ffb900" d="M 9.121094 16.070312 L 6.789062 16.070312 C 6.726562 16.070312 6.675781 16.019531 6.675781 15.957031 C 6.675781 15.894531 6.726562 15.84375 6.789062 15.84375 L 9.121094 15.84375 C 9.1875 15.84375 9.238281 15.894531 9.238281 15.957031 C 9.238281 16.019531 9.1875 16.070312 9.121094 16.070312 Z M 9.121094 16.070312 " fill-opacity="1" fill-rule="nonzero"/><path fill="#ffb900" d="M 9.097656 23.128906 C 9.0625 23.128906 9.03125 23.109375 9.007812 23.082031 C 8.96875 23.03125 8.980469 22.957031 9.03125 22.921875 L 10.921875 21.5625 C 10.972656 21.523438 11.042969 21.535156 11.078125 21.585938 C 11.117188 21.636719 11.105469 21.707031 11.054688 21.742188 L 9.167969 23.105469 C 9.144531 23.121094 9.121094 23.128906 9.097656 23.128906 Z M 9.097656 23.128906 " fill-opacity="1" fill-rule="nonzero"/><path fill="#ffb900" d="M 28.675781 23.128906 C 28.652344 23.128906 28.628906 23.121094 28.605469 23.105469 L 26.71875 21.742188 C 26.667969 21.707031 26.65625 21.636719 26.695312 21.585938 C 26.730469 21.535156 26.800781 21.523438 26.851562 21.5625 L 28.742188 22.921875 C 28.792969 22.957031 28.804688 23.03125 28.765625 23.082031 C 28.742188 23.109375 28.710938 23.128906 28.675781 23.128906 Z M 28.675781 23.128906 " fill-opacity="1" fill-rule="nonzero"/><path fill="#ffb900" d="M 30.984375 16.070312 L 28.648438 16.070312 C 28.585938 16.070312 28.535156 16.019531 28.535156 15.957031 C 28.535156 15.894531 28.585938 15.84375 28.648438 15.84375 L 30.984375 15.84375 C 31.046875 15.84375 31.097656 15.894531 31.097656 15.957031 C 31.097656 16.019531 31.046875 16.070312 30.984375 16.070312 Z M 30.984375 16.070312 " fill-opacity="1" fill-rule="nonzero"/><path fill="#ffb900" d="M 26.785156 10.375 C 26.75 10.375 26.714844 10.359375 26.695312 10.328125 C 26.65625 10.277344 26.667969 10.207031 26.71875 10.171875 L 28.605469 8.808594 C 28.65625 8.773438 28.730469 8.785156 28.765625 8.835938 C 28.804688 8.886719 28.792969 8.957031 28.742188 8.992188 L 26.851562 10.355469 C 26.832031 10.367188 26.808594 10.375 26.785156 10.375 Z M 26.785156 10.375 " fill-opacity="1" fill-rule="nonzero"/><path fill="#ffb900" d="M 21.902344 6.855469 C 21.890625 6.855469 21.878906 6.855469 21.867188 6.851562 C 21.808594 6.832031 21.777344 6.765625 21.796875 6.707031 L 22.515625 4.503906 C 22.535156 4.445312 22.597656 4.414062 22.660156 4.433594 C 22.71875 4.453125 22.75 4.515625 22.734375 4.574219 L 22.011719 6.777344 C 21.996094 6.824219 21.953125 6.855469 21.902344 6.855469 Z M 21.902344 6.855469 " fill-opacity="1" fill-rule="nonzero"/><path fill="#ffde00" d="M 13.148438 8.316406 C 13.085938 8.316406 13.027344 8.289062 12.988281 8.234375 L 10.527344 4.875 C 10.460938 4.789062 10.480469 4.664062 10.570312 4.601562 C 10.660156 4.535156 10.785156 4.554688 10.847656 4.644531 L 13.308594 8.003906 C 13.375 8.089844 13.355469 8.214844 13.265625 8.28125 C 13.230469 8.304688 13.1875 8.316406 13.148438 8.316406 Z M 13.148438 8.316406 " fill-opacity="1" fill-rule="nonzero"/><g clip-path="url(#id5)"><path fill="#ffde00" d="M 9.601562 13.160156 C 9.582031 13.160156 9.558594 13.15625 9.539062 13.152344 L 5.558594 11.867188 C 5.457031 11.835938 5.398438 11.722656 5.433594 11.621094 C 5.464844 11.515625 5.578125 11.460938 5.683594 11.492188 L 9.664062 12.777344 C 9.765625 12.808594 9.824219 12.921875 9.789062 13.023438 C 9.761719 13.109375 9.683594 13.160156 9.601562 13.160156 Z M 9.601562 13.160156 " fill-opacity="1" fill-rule="nonzero"/></g><g clip-path="url(#id6)"><path fill="#ffde00" d="M 5.621094 20.433594 C 5.539062 20.433594 5.460938 20.378906 5.433594 20.296875 C 5.398438 20.191406 5.457031 20.078125 5.558594 20.046875 L 9.539062 18.761719 C 9.644531 18.730469 9.757812 18.785156 9.789062 18.890625 C 9.824219 18.992188 9.765625 19.105469 9.664062 19.140625 L 5.683594 20.421875 C 5.664062 20.429688 5.640625 20.433594 5.621094 20.433594 Z M 5.621094 20.433594 " fill-opacity="1" fill-rule="nonzero"/></g><path fill="#ffde00" d="M 10.6875 27.351562 C 10.648438 27.351562 10.605469 27.339844 10.570312 27.316406 C 10.484375 27.25 10.460938 27.128906 10.527344 27.039062 L 12.988281 23.679688 C 13.050781 23.589844 13.175781 23.570312 13.265625 23.636719 C 13.355469 23.699219 13.375 23.824219 13.308594 23.910156 L 10.847656 27.273438 C 10.8125 27.324219 10.75 27.351562 10.6875 27.351562 Z M 10.6875 27.351562 " fill-opacity="1" fill-rule="nonzero"/><path fill="#ffde00" d="M 27.085938 27.351562 C 27.023438 27.351562 26.960938 27.324219 26.925781 27.273438 L 24.464844 23.914062 C 24.398438 23.824219 24.417969 23.699219 24.507812 23.636719 C 24.597656 23.570312 24.722656 23.589844 24.785156 23.679688 L 27.246094 27.039062 C 27.3125 27.128906 27.289062 27.253906 27.203125 27.316406 C 27.167969 27.339844 27.125 27.351562 27.085938 27.351562 Z M 27.085938 27.351562 " fill-opacity="1" fill-rule="nonzero"/><g clip-path="url(#id7)"><path fill="#ffde00" d="M 32.152344 20.433594 C 32.132812 20.433594 32.109375 20.429688 32.089844 20.421875 L 28.109375 19.140625 C 28.003906 19.105469 27.949219 18.996094 27.984375 18.890625 C 28.015625 18.785156 28.128906 18.730469 28.234375 18.765625 L 32.214844 20.046875 C 32.316406 20.082031 32.375 20.191406 32.339844 20.296875 C 32.316406 20.378906 32.234375 20.433594 32.152344 20.433594 Z M 32.152344 20.433594 " fill-opacity="1" fill-rule="nonzero"/></g><g clip-path="url(#id8)"><path fill="#ffde00" d="M 28.171875 13.160156 C 28.089844 13.160156 28.011719 13.109375 27.984375 13.023438 C 27.949219 12.921875 28.007812 12.808594 28.109375 12.777344 L 32.089844 11.492188 C 32.195312 11.457031 32.308594 11.515625 32.34375 11.617188 C 32.375 11.722656 32.320312 11.835938 32.214844 11.867188 L 28.234375 13.152344 C 28.214844 13.15625 28.191406 13.160156 28.171875 13.160156 Z M 28.171875 13.160156 " fill-opacity="1" fill-rule="nonzero"/></g><path fill="#ffde00" d="M 24.625 8.316406 C 24.585938 8.316406 24.542969 8.304688 24.507812 8.277344 C 24.417969 8.214844 24.398438 8.089844 24.464844 8.003906 L 26.925781 4.644531 C 26.988281 4.554688 27.113281 4.535156 27.203125 4.597656 C 27.292969 4.664062 27.3125 4.785156 27.246094 4.875 L 24.785156 8.234375 C 24.746094 8.289062 24.6875 8.316406 24.625 8.316406 Z M 24.625 8.316406 " fill-opacity="1" fill-rule="nonzero"/><path fill="#ffb900" d="M 27.539062 15.957031 C 27.539062 13.179688 26.210938 10.707031 24.148438 9.140625 C 25.078125 10.535156 25.609375 12.21875 25.574219 14.027344 C 25.488281 18.714844 21.597656 22.480469 16.878906 22.453125 C 14.917969 22.445312 13.109375 21.789062 11.664062 20.6875 C 11.984375 21.171875 12.355469 21.617188 12.765625 22.027344 C 13.808594 23.066406 14.390625 24.480469 14.390625 25.949219 L 14.390625 27.484375 L 23.382812 27.484375 L 23.382812 25.949219 C 23.382812 24.480469 23.964844 23.066406 25.011719 22.027344 C 26.574219 20.472656 27.539062 18.328125 27.539062 15.957031 Z M 27.539062 15.957031 " fill-opacity="1" fill-rule="nonzero"/><path fill="#2e3545" d="M 23.382812 27.339844 L 23.382812 30.195312 C 23.382812 30.222656 23.382812 30.246094 23.382812 30.273438 C 23.375 30.601562 23.332031 30.921875 23.25 31.222656 C 23.175781 31.496094 23.074219 31.753906 22.945312 32 C 22.539062 32.789062 21.875 33.421875 21.058594 33.792969 C 20.554688 34.019531 19.992188 34.148438 19.402344 34.148438 L 18.371094 34.148438 C 17.78125 34.148438 17.21875 34.019531 16.714844 33.792969 C 16.296875 33.601562 15.917969 33.339844 15.59375 33.027344 C 15.386719 32.828125 15.203125 32.605469 15.046875 32.367188 C 14.867188 32.097656 14.71875 31.804688 14.609375 31.496094 C 14.53125 31.269531 14.46875 31.03125 14.433594 30.785156 C 14.40625 30.59375 14.390625 30.398438 14.390625 30.195312 L 14.390625 27.339844 Z M 23.382812 27.339844 " fill-opacity="1" fill-rule="nonzero"/><path fill="#585d6a" d="M 23.382812 28.605469 L 14.390625 29.863281 L 14.390625 29.125 L 23.382812 27.871094 Z M 23.382812 28.605469 " fill-opacity="1" fill-rule="nonzero"/><path fill="#585d6a" d="M 23.382812 29.539062 L 23.382812 30.273438 L 14.609375 31.496094 C 14.53125 31.269531 14.46875 31.03125 14.433594 30.789062 Z M 23.382812 29.539062 " fill-opacity="1" fill-rule="nonzero"/><path fill="#585d6a" d="M 23.246094 31.226562 C 23.175781 31.496094 23.074219 31.753906 22.945312 32 L 15.59375 33.027344 C 15.386719 32.828125 15.203125 32.609375 15.042969 32.367188 Z M 23.246094 31.226562 " fill-opacity="1" fill-rule="nonzero"/><path fill="#232834" d="M 20.519531 34.769531 L 17.253906 34.769531 L 16.710938 33.78125 L 21.0625 33.78125 Z M 20.519531 34.769531 " fill-opacity="1" fill-rule="nonzero"/><path fill="#ffffff" d="M 20.925781 27.339844 L 20.371094 27.339844 L 20.371094 18.988281 L 17.402344 18.988281 L 17.402344 27.339844 L 16.847656 27.339844 L 16.847656 18.988281 L 16.171875 18.988281 C 15.492188 18.988281 14.941406 18.441406 14.941406 17.765625 L 14.941406 17.355469 C 14.941406 16.679688 15.492188 16.132812 16.171875 16.132812 C 16.851562 16.132812 17.40625 16.679688 17.40625 17.355469 L 17.40625 18.433594 L 20.371094 18.433594 L 20.371094 17.355469 C 20.371094 16.679688 20.921875 16.132812 21.601562 16.132812 C 22.28125 16.132812 22.835938 16.679688 22.835938 17.355469 L 22.835938 17.765625 C 22.835938 18.441406 22.28125 18.988281 21.601562 18.988281 L 20.925781 18.988281 Z M 20.925781 18.4375 L 21.601562 18.4375 C 21.972656 18.4375 22.277344 18.136719 22.277344 17.765625 L 22.277344 17.355469 C 22.277344 16.984375 21.972656 16.6875 21.601562 16.6875 C 21.230469 16.6875 20.925781 16.984375 20.925781 17.355469 Z M 16.171875 16.683594 C 15.800781 16.683594 15.496094 16.984375 15.496094 17.355469 L 15.496094 17.765625 C 15.496094 18.136719 15.800781 18.433594 16.171875 18.433594 L 16.847656 18.433594 L 16.847656 17.355469 C 16.847656 16.984375 16.542969 16.683594 16.171875 16.683594 Z M 16.171875 16.683594 " fill-opacity="1" fill-rule="nonzero"/></svg>