<svg xmlns="http://www.w3.org/2000/svg" xmlns:xlink="http://www.w3.org/1999/xlink" width="50" zoomAndPan="magnify" viewBox="0 0 37.5 37.499999" height="50" preserveAspectRatio="xMidYMid meet" version="1.0"><defs><clipPath id="id1"><path d="M 13.277344 3.320312 L 35.027344 3.320312 L 35.027344 25.070312 L 13.277344 25.070312 Z M 13.277344 3.320312 " clip-rule="nonzero"/></clipPath><clipPath id="id2"><path d="M 1.875 1.875 L 35.625 1.875 L 35.625 35.625 L 1.875 35.625 Z M 1.875 1.875 " clip-rule="nonzero"/></clipPath><clipPath id="id3"><path d="M 14.171875 27.046875 L 13.820312 27.398438 L 13.480469 27.742188 L 13.144531 28.074219 L 12.820312 28.402344 L 12.5 28.71875 L 12.191406 29.03125 L 11.886719 29.332031 L 9.996094 31.222656 L 9.761719 31.460938 L 9.53125 31.6875 L 7.984375 33.234375 L 7.828125 33.394531 L 7.675781 33.542969 L 6.472656 34.746094 L 6.398438 34.824219 L 6.320312 34.898438 L 6.238281 34.96875 L 6.15625 35.035156 L 6.070312 35.097656 L 5.898438 35.214844 L 5.808594 35.265625 L 5.714844 35.3125 L 5.625 35.355469 L 5.527344 35.398438 L 5.433594 35.433594 L 5.335938 35.464844 L 5.140625 35.519531 L 5.042969 35.539062 L 4.941406 35.558594 L 4.84375 35.570312 L 4.640625 35.585938 L 4.4375 35.585938 L 4.339844 35.578125 L 4.238281 35.570312 L 4.136719 35.554688 L 4.039062 35.539062 L 3.9375 35.515625 L 3.839844 35.492188 L 3.644531 35.429688 L 3.546875 35.390625 L 3.453125 35.351562 L 3.359375 35.304688 L 3.269531 35.257812 L 3.179688 35.207031 L 3.089844 35.148438 L 3.003906 35.089844 L 2.917969 35.023438 L 2.835938 34.957031 L 2.753906 34.882812 L 2.675781 34.808594 L 2.601562 34.730469 L 2.53125 34.652344 L 2.464844 34.566406 L 2.402344 34.484375 L 2.34375 34.398438 L 2.285156 34.308594 L 2.234375 34.21875 L 2.1875 34.128906 L 2.101562 33.941406 L 2.066406 33.847656 L 2.035156 33.75 L 1.980469 33.554688 L 1.960938 33.453125 L 1.941406 33.355469 L 1.929688 33.253906 L 1.921875 33.152344 L 1.914062 33.054688 L 1.914062 32.851562 L 1.929688 32.648438 L 1.945312 32.550781 L 1.960938 32.449219 L 1.984375 32.351562 L 2.007812 32.25 L 2.039062 32.152344 L 2.070312 32.058594 L 2.109375 31.960938 L 2.148438 31.867188 L 2.242188 31.679688 L 2.292969 31.589844 L 2.351562 31.5 L 2.410156 31.414062 L 2.476562 31.328125 L 2.542969 31.246094 L 2.617188 31.164062 L 2.628906 31.152344 L 2.628906 31.148438 L 2.632812 31.148438 L 2.644531 31.136719 L 2.644531 31.132812 L 2.648438 31.132812 L 2.65625 31.125 L 2.65625 31.121094 L 2.660156 31.117188 L 2.664062 31.117188 L 2.671875 31.109375 L 2.671875 31.105469 L 2.675781 31.105469 L 2.683594 31.097656 L 2.683594 31.09375 L 2.6875 31.089844 L 2.691406 31.089844 L 2.695312 31.085938 L 2.695312 31.082031 L 2.703125 31.074219 L 2.707031 31.074219 L 2.710938 31.070312 L 2.710938 31.066406 L 2.714844 31.0625 L 2.71875 31.0625 L 2.726562 31.054688 L 2.726562 31.050781 L 2.730469 31.050781 L 3.214844 30.566406 L 3.328125 30.449219 L 3.449219 30.332031 L 3.574219 30.203125 L 3.707031 30.074219 L 3.84375 29.933594 L 3.988281 29.792969 L 5.972656 27.808594 L 6.1875 27.589844 L 6.410156 27.367188 L 6.640625 27.140625 L 8.6875 25.09375 L 8.96875 24.808594 L 9.261719 24.519531 L 10.796875 22.984375 L 14.53125 26.6875 Z M 24.609375 1.953125 L 25.09375 2.003906 L 25.570312 2.070312 L 26.039062 2.15625 L 26.503906 2.261719 L 26.960938 2.382812 L 27.410156 2.523438 L 27.851562 2.683594 L 28.285156 2.855469 L 28.710938 3.046875 L 29.125 3.25 L 29.53125 3.472656 L 29.929688 3.707031 L 30.316406 3.960938 L 30.691406 4.222656 L 31.058594 4.503906 L 31.414062 4.796875 L 31.757812 5.101562 L 32.085938 5.421875 L 32.40625 5.753906 L 32.710938 6.09375 L 33.003906 6.449219 L 33.28125 6.816406 L 33.546875 7.191406 L 33.796875 7.578125 L 34.03125 7.976562 L 34.253906 8.382812 L 34.457031 8.800781 L 34.648438 9.222656 L 34.820312 9.65625 L 34.976562 10.101562 L 35.117188 10.550781 L 35.238281 11.007812 L 35.34375 11.46875 L 35.429688 11.941406 L 35.496094 12.417969 L 35.546875 12.898438 L 35.574219 13.386719 L 35.585938 13.882812 L 35.574219 14.375 L 35.542969 14.863281 L 35.496094 15.34375 L 35.425781 15.820312 L 35.339844 16.292969 L 35.234375 16.753906 L 35.113281 17.210938 L 34.972656 17.660156 L 34.816406 18.105469 L 34.644531 18.535156 L 34.453125 18.960938 L 34.246094 19.378906 L 34.023438 19.785156 L 33.789062 20.179688 L 33.539062 20.566406 L 33.273438 20.945312 L 32.992188 21.308594 L 32.699219 21.664062 L 32.394531 22.007812 L 32.078125 22.335938 L 31.746094 22.65625 L 31.402344 22.960938 L 31.046875 23.253906 L 30.683594 23.53125 L 30.304688 23.796875 L 29.917969 24.046875 L 29.519531 24.285156 L 29.113281 24.503906 L 28.699219 24.710938 L 28.273438 24.898438 L 27.839844 25.070312 L 27.398438 25.230469 L 26.949219 25.367188 L 26.492188 25.492188 L 26.027344 25.59375 L 25.558594 25.679688 L 25.082031 25.75 L 24.597656 25.796875 L 24.109375 25.828125 L 23.617188 25.835938 L 23.378906 25.835938 L 23.140625 25.828125 L 22.90625 25.816406 L 22.671875 25.796875 L 22.433594 25.777344 L 22.203125 25.75 L 21.96875 25.722656 L 21.734375 25.6875 L 21.503906 25.648438 L 21.273438 25.601562 L 21.046875 25.554688 L 20.816406 25.503906 L 20.589844 25.445312 L 20.363281 25.382812 L 20.140625 25.320312 L 19.695312 25.171875 L 19.476562 25.09375 L 19.257812 25.011719 L 19.042969 24.925781 L 18.613281 24.738281 L 18.40625 24.636719 L 18.195312 24.535156 L 17.988281 24.425781 L 17.582031 24.199219 L 17.378906 24.078125 L 17.183594 23.953125 L 16.984375 23.824219 L 16.792969 23.695312 L 16.601562 23.558594 L 16.410156 23.417969 L 16.042969 23.128906 L 15.859375 22.976562 L 15.507812 22.664062 L 15.335938 22.5 L 15.164062 22.332031 L 15 22.164062 L 14.835938 21.992188 L 14.675781 21.816406 L 14.519531 21.636719 L 14.367188 21.457031 L 14.21875 21.273438 L 14.074219 21.085938 L 13.933594 20.898438 L 13.796875 20.707031 L 13.664062 20.511719 L 13.539062 20.316406 L 13.414062 20.117188 L 13.292969 19.917969 L 13.175781 19.710938 L 13.0625 19.507812 L 12.957031 19.300781 L 12.851562 19.089844 L 12.65625 18.667969 L 12.566406 18.453125 L 12.476562 18.234375 L 12.394531 18.015625 L 12.316406 17.796875 L 12.242188 17.574219 L 12.171875 17.351562 L 12.105469 17.128906 L 12.046875 16.902344 L 11.988281 16.671875 L 11.9375 16.445312 L 11.886719 16.214844 L 11.84375 15.984375 L 11.804688 15.753906 L 11.769531 15.519531 L 11.714844 15.050781 L 11.695312 14.816406 L 11.679688 14.578125 L 11.667969 14.34375 L 11.660156 13.867188 L 11.671875 13.375 L 11.703125 12.886719 L 11.75 12.40625 L 11.820312 11.929688 L 11.90625 11.457031 L 12.011719 10.992188 L 12.132812 10.535156 L 12.273438 10.085938 L 12.429688 9.644531 L 12.601562 9.210938 L 12.792969 8.789062 L 13 8.371094 L 13.222656 7.964844 L 13.457031 7.566406 L 13.707031 7.179688 L 13.972656 6.804688 L 14.25 6.4375 L 14.542969 6.085938 L 14.851562 5.742188 L 15.167969 5.410156 L 15.5 5.09375 L 15.84375 4.789062 L 16.199219 4.496094 L 16.5625 4.214844 L 16.941406 3.953125 L 17.328125 3.703125 L 17.726562 3.464844 L 18.132812 3.246094 L 18.546875 3.039062 L 18.972656 2.851562 L 19.40625 2.675781 L 19.847656 2.519531 L 20.296875 2.378906 L 20.753906 2.257812 L 21.21875 2.15625 L 21.6875 2.066406 L 22.167969 2 L 22.648438 1.953125 L 23.136719 1.921875 L 23.628906 1.914062 L 24.125 1.921875 Z M 13.921875 22.011719 L 13.953125 22.046875 L 13.984375 22.085938 L 14.046875 22.15625 L 14.078125 22.195312 L 14.109375 22.230469 L 14.144531 22.265625 L 14.207031 22.335938 L 14.238281 22.375 L 14.273438 22.410156 L 14.335938 22.480469 L 14.371094 22.515625 L 14.402344 22.550781 L 14.4375 22.585938 L 14.46875 22.621094 L 14.503906 22.65625 L 14.535156 22.691406 L 14.570312 22.722656 L 14.601562 22.757812 L 14.671875 22.828125 L 14.707031 22.859375 L 14.738281 22.894531 L 14.773438 22.929688 L 14.808594 22.960938 L 14.84375 22.996094 L 14.878906 23.027344 L 14.914062 23.0625 L 14.949219 23.09375 L 14.984375 23.128906 L 15.054688 23.191406 L 15.089844 23.226562 L 15.230469 23.351562 L 15.269531 23.382812 L 15.339844 23.445312 L 15.378906 23.472656 L 15.449219 23.535156 L 15.488281 23.5625 L 15.523438 23.59375 L 15.5625 23.621094 L 15.238281 23.945312 L 15.183594 23.996094 L 15.128906 24.054688 L 14.855469 24.328125 L 14.777344 24.402344 L 14.011719 25.167969 L 12.316406 23.480469 L 12.539062 23.257812 L 12.644531 23.15625 L 12.742188 23.054688 L 12.929688 22.867188 L 13.019531 22.78125 L 13.101562 22.695312 L 13.253906 22.542969 L 13.328125 22.472656 L 13.394531 22.40625 L 13.453125 22.34375 L 13.511719 22.285156 L 13.566406 22.234375 L 13.613281 22.183594 L 13.660156 22.140625 L 13.699219 22.097656 L 13.765625 22.03125 L 13.796875 22.003906 L 13.816406 21.980469 L 13.851562 21.945312 L 13.863281 21.9375 L 13.894531 21.972656 Z M 22.714844 3.886719 L 22.332031 3.929688 L 21.949219 3.988281 L 21.574219 4.058594 L 21.195312 4.144531 L 20.824219 4.246094 L 20.457031 4.359375 L 20.09375 4.488281 L 19.734375 4.628906 L 19.378906 4.785156 L 19.03125 4.957031 L 18.691406 5.140625 L 18.355469 5.335938 L 18.027344 5.546875 L 17.707031 5.773438 L 17.394531 6.011719 L 17.089844 6.261719 L 16.792969 6.527344 L 16.507812 6.804688 L 16.230469 7.09375 L 15.964844 7.398438 L 15.707031 7.714844 L 15.460938 8.042969 L 15.226562 8.382812 L 15.070312 8.636719 L 14.917969 8.890625 L 14.773438 9.148438 L 14.636719 9.410156 L 14.511719 9.675781 L 14.394531 9.945312 L 14.28125 10.214844 L 14.179688 10.488281 L 14.085938 10.761719 L 14 11.039062 L 13.921875 11.320312 L 13.851562 11.597656 L 13.789062 11.882812 L 13.738281 12.164062 L 13.691406 12.449219 L 13.65625 12.734375 L 13.625 13.019531 L 13.605469 13.304688 L 13.59375 13.59375 L 13.589844 13.878906 L 13.59375 14.167969 L 13.605469 14.453125 L 13.625 14.738281 L 13.65625 15.027344 L 13.691406 15.3125 L 13.738281 15.597656 L 13.789062 15.878906 L 13.851562 16.160156 L 13.921875 16.441406 L 14 16.71875 L 14.085938 16.996094 L 14.179688 17.269531 L 14.28125 17.542969 L 14.394531 17.8125 L 14.511719 18.082031 L 14.636719 18.347656 L 14.773438 18.609375 L 14.917969 18.867188 L 15.070312 19.125 L 15.226562 19.375 L 15.253906 19.375 L 15.484375 19.71875 L 15.730469 20.046875 L 15.988281 20.359375 L 16.253906 20.664062 L 16.53125 20.953125 L 16.816406 21.230469 L 17.113281 21.492188 L 17.417969 21.746094 L 17.730469 21.980469 L 18.050781 22.207031 L 18.378906 22.417969 L 18.714844 22.613281 L 19.054688 22.796875 L 19.402344 22.964844 L 19.757812 23.121094 L 20.113281 23.265625 L 20.480469 23.390625 L 20.847656 23.507812 L 21.21875 23.605469 L 21.59375 23.691406 L 21.972656 23.761719 L 22.351562 23.820312 L 22.734375 23.859375 L 23.117188 23.886719 L 23.503906 23.902344 L 23.890625 23.898438 L 24.277344 23.882812 L 24.664062 23.847656 L 25.050781 23.800781 L 25.433594 23.738281 L 25.816406 23.660156 L 26.199219 23.570312 L 26.578125 23.460938 L 26.953125 23.335938 L 27.328125 23.195312 L 27.695312 23.042969 L 28.0625 22.871094 L 28.421875 22.683594 L 28.777344 22.476562 L 29.128906 22.257812 L 29.214844 22.203125 L 29.300781 22.144531 L 29.382812 22.085938 L 29.46875 22.027344 L 29.550781 21.964844 L 29.632812 21.90625 L 29.878906 21.71875 L 30.035156 21.585938 L 30.113281 21.523438 L 30.191406 21.453125 L 30.347656 21.320312 L 30.644531 21.039062 L 30.789062 20.894531 L 31 20.671875 L 31.070312 20.59375 L 31.140625 20.519531 L 31.40625 20.207031 L 31.53125 20.042969 L 31.59375 19.964844 L 31.65625 19.882812 L 31.71875 19.796875 L 31.835938 19.632812 L 31.898438 19.546875 L 31.953125 19.460938 L 32.011719 19.375 L 32.230469 19.027344 L 32.433594 18.667969 L 32.621094 18.308594 L 32.792969 17.941406 L 32.949219 17.574219 L 33.089844 17.199219 L 33.210938 16.824219 L 33.320312 16.445312 L 33.414062 16.0625 L 33.492188 15.679688 L 33.554688 15.292969 L 33.601562 14.90625 L 33.632812 14.519531 L 33.648438 14.132812 L 33.652344 13.746094 L 33.636719 13.359375 L 33.609375 12.976562 L 33.570312 12.589844 L 33.511719 12.210938 L 33.441406 11.832031 L 33.355469 11.457031 L 33.253906 11.085938 L 33.140625 10.71875 L 33.011719 10.355469 L 32.871094 9.996094 L 32.710938 9.640625 L 32.542969 9.292969 L 32.359375 8.949219 L 32.160156 8.617188 L 31.949219 8.285156 L 31.726562 7.964844 L 31.488281 7.652344 L 31.238281 7.347656 L 30.972656 7.054688 L 30.695312 6.765625 L 30.40625 6.488281 L 30.101562 6.222656 L 29.785156 5.96875 L 29.457031 5.722656 L 29.117188 5.488281 L 28.765625 5.269531 L 28.410156 5.066406 L 28.046875 4.878906 L 27.683594 4.707031 L 27.3125 4.550781 L 26.941406 4.410156 L 26.5625 4.289062 L 26.183594 4.179688 L 25.800781 4.085938 L 25.417969 4.007812 L 25.03125 3.945312 L 24.644531 3.898438 L 24.257812 3.867188 L 23.871094 3.851562 L 23.484375 3.847656 L 23.097656 3.859375 Z M 22.714844 3.886719 " clip-rule="nonzero"/></clipPath><linearGradient x1="250.48" gradientTransform="matrix(0.0728784, 0, 0, 0.0728784, 0.493954, 0.497595)" y1="19.42003" x2="250.48" gradientUnits="userSpaceOnUse" y2="481.480026" id="id4"><stop stop-opacity="1" stop-color="rgb(17.298889%, 92.498779%, 100%)" offset="0"/><stop stop-opacity="1" stop-color="rgb(17.611694%, 92.3172%, 100%)" offset="0.00390625"/><stop stop-opacity="1" stop-color="rgb(17.926025%, 92.13562%, 100%)" offset="0.0078125"/><stop stop-opacity="1" stop-color="rgb(18.240356%, 91.952515%, 100%)" offset="0.0117188"/><stop stop-opacity="1" stop-color="rgb(18.554688%, 91.770935%, 100%)" offset="0.015625"/><stop stop-opacity="1" stop-color="rgb(18.867493%, 91.589355%, 100%)" offset="0.0195313"/><stop stop-opacity="1" stop-color="rgb(19.181824%, 91.407776%, 100%)" offset="0.0234375"/><stop stop-opacity="1" stop-color="rgb(19.494629%, 91.22467%, 100%)" offset="0.0273438"/><stop stop-opacity="1" stop-color="rgb(19.80896%, 91.043091%, 100%)" offset="0.03125"/><stop stop-opacity="1" stop-color="rgb(20.121765%, 90.859985%, 100%)" offset="0.0351562"/><stop stop-opacity="1" stop-color="rgb(20.436096%, 90.678406%, 100%)" offset="0.0390625"/><stop stop-opacity="1" stop-color="rgb(20.748901%, 90.496826%, 100%)" offset="0.0429688"/><stop stop-opacity="1" stop-color="rgb(21.063232%, 90.315247%, 100%)" offset="0.046875"/><stop stop-opacity="1" stop-color="rgb(21.376038%, 90.132141%, 100%)" offset="0.0507812"/><stop stop-opacity="1" stop-color="rgb(21.690369%, 89.950562%, 100%)" offset="0.0546875"/><stop stop-opacity="1" stop-color="rgb(22.003174%, 89.768982%, 100%)" offset="0.0585938"/><stop stop-opacity="1" stop-color="rgb(22.317505%, 89.587402%, 100%)" offset="0.0625"/><stop stop-opacity="1" stop-color="rgb(22.63031%, 89.404297%, 100%)" offset="0.0664062"/><stop stop-opacity="1" stop-color="rgb(22.944641%, 89.222717%, 100%)" offset="0.0703125"/><stop stop-opacity="1" stop-color="rgb(23.258972%, 89.039612%, 100%)" offset="0.0742188"/><stop stop-opacity="1" stop-color="rgb(23.573303%, 88.858032%, 100%)" offset="0.078125"/><stop stop-opacity="1" stop-color="rgb(23.886108%, 88.676453%, 100%)" offset="0.0820313"/><stop stop-opacity="1" stop-color="rgb(24.200439%, 88.494873%, 100%)" offset="0.0859375"/><stop stop-opacity="1" stop-color="rgb(24.513245%, 88.311768%, 100%)" offset="0.0898438"/><stop stop-opacity="1" stop-color="rgb(24.827576%, 88.130188%, 100%)" offset="0.09375"/><stop stop-opacity="1" stop-color="rgb(25.140381%, 87.948608%, 100%)" offset="0.0976563"/><stop stop-opacity="1" stop-color="rgb(25.454712%, 87.767029%, 100%)" offset="0.101562"/><stop stop-opacity="1" stop-color="rgb(25.767517%, 87.583923%, 100%)" offset="0.105469"/><stop stop-opacity="1" stop-color="rgb(26.081848%, 87.402344%, 100%)" offset="0.109375"/><stop stop-opacity="1" stop-color="rgb(26.394653%, 87.219238%, 100%)" offset="0.113281"/><stop stop-opacity="1" stop-color="rgb(26.708984%, 87.037659%, 100%)" offset="0.117188"/><stop stop-opacity="1" stop-color="rgb(27.02179%, 86.856079%, 100%)" offset="0.121094"/><stop stop-opacity="1" stop-color="rgb(27.336121%, 86.6745%, 100%)" offset="0.125"/><stop stop-opacity="1" stop-color="rgb(27.650452%, 86.491394%, 100%)" offset="0.128906"/><stop stop-opacity="1" stop-color="rgb(27.964783%, 86.309814%, 100%)" offset="0.132813"/><stop stop-opacity="1" stop-color="rgb(28.277588%, 86.128235%, 100%)" offset="0.136719"/><stop stop-opacity="1" stop-color="rgb(28.591919%, 85.946655%, 100%)" offset="0.140625"/><stop stop-opacity="1" stop-color="rgb(28.904724%, 85.76355%, 100%)" offset="0.144531"/><stop stop-opacity="1" stop-color="rgb(29.219055%, 85.58197%, 100%)" offset="0.148438"/><stop stop-opacity="1" stop-color="rgb(29.53186%, 85.398865%, 100%)" offset="0.152344"/><stop stop-opacity="1" stop-color="rgb(29.846191%, 85.217285%, 100%)" offset="0.15625"/><stop stop-opacity="1" stop-color="rgb(30.158997%, 85.035706%, 100%)" offset="0.160156"/><stop stop-opacity="1" stop-color="rgb(30.473328%, 84.854126%, 100%)" offset="0.164063"/><stop stop-opacity="1" stop-color="rgb(30.786133%, 84.671021%, 100%)" offset="0.167969"/><stop stop-opacity="1" stop-color="rgb(31.100464%, 84.489441%, 100%)" offset="0.171875"/><stop stop-opacity="1" stop-color="rgb(31.413269%, 84.307861%, 100%)" offset="0.175781"/><stop stop-opacity="1" stop-color="rgb(31.7276%, 84.126282%, 100%)" offset="0.179688"/><stop stop-opacity="1" stop-color="rgb(32.040405%, 83.943176%, 100%)" offset="0.183594"/><stop stop-opacity="1" stop-color="rgb(32.354736%, 83.761597%, 100%)" offset="0.1875"/><stop stop-opacity="1" stop-color="rgb(32.669067%, 83.578491%, 100%)" offset="0.191406"/><stop stop-opacity="1" stop-color="rgb(32.983398%, 83.396912%, 100%)" offset="0.195313"/><stop stop-opacity="1" stop-color="rgb(33.296204%, 83.215332%, 100%)" offset="0.199219"/><stop stop-opacity="1" stop-color="rgb(33.610535%, 83.033752%, 100%)" offset="0.203125"/><stop stop-opacity="1" stop-color="rgb(33.92334%, 82.850647%, 100%)" offset="0.207031"/><stop stop-opacity="1" stop-color="rgb(34.237671%, 82.669067%, 100%)" offset="0.210938"/><stop stop-opacity="1" stop-color="rgb(34.550476%, 82.487488%, 100%)" offset="0.214844"/><stop stop-opacity="1" stop-color="rgb(34.864807%, 82.305908%, 100%)" offset="0.21875"/><stop stop-opacity="1" stop-color="rgb(35.177612%, 82.122803%, 100%)" offset="0.222656"/><stop stop-opacity="1" stop-color="rgb(35.491943%, 81.941223%, 100%)" offset="0.226563"/><stop stop-opacity="1" stop-color="rgb(35.804749%, 81.759644%, 100%)" offset="0.230469"/><stop stop-opacity="1" stop-color="rgb(36.11908%, 81.578064%, 100%)" offset="0.234375"/><stop stop-opacity="1" stop-color="rgb(36.431885%, 81.394958%, 100%)" offset="0.238281"/><stop stop-opacity="1" stop-color="rgb(36.746216%, 81.213379%, 100%)" offset="0.242188"/><stop stop-opacity="1" stop-color="rgb(37.060547%, 81.030273%, 100%)" offset="0.246094"/><stop stop-opacity="1" stop-color="rgb(37.374878%, 80.848694%, 100%)" offset="0.25"/><stop stop-opacity="1" stop-color="rgb(37.687683%, 80.667114%, 100%)" offset="0.253906"/><stop stop-opacity="1" stop-color="rgb(38.002014%, 80.485535%, 100%)" offset="0.257812"/><stop stop-opacity="1" stop-color="rgb(38.314819%, 80.302429%, 100%)" offset="0.261719"/><stop stop-opacity="1" stop-color="rgb(38.62915%, 80.12085%, 100%)" offset="0.265625"/><stop stop-opacity="1" stop-color="rgb(38.941956%, 79.93927%, 100%)" offset="0.269531"/><stop stop-opacity="1" stop-color="rgb(39.256287%, 79.75769%, 100%)" offset="0.273437"/><stop stop-opacity="1" stop-color="rgb(39.569092%, 79.574585%, 100%)" offset="0.277344"/><stop stop-opacity="1" stop-color="rgb(39.883423%, 79.393005%, 100%)" offset="0.28125"/><stop stop-opacity="1" stop-color="rgb(40.196228%, 79.2099%, 100%)" offset="0.285156"/><stop stop-opacity="1" stop-color="rgb(40.510559%, 79.02832%, 100%)" offset="0.289062"/><stop stop-opacity="1" stop-color="rgb(40.823364%, 78.846741%, 100%)" offset="0.292969"/><stop stop-opacity="1" stop-color="rgb(41.137695%, 78.665161%, 100%)" offset="0.296875"/><stop stop-opacity="1" stop-color="rgb(41.452026%, 78.482056%, 100%)" offset="0.300781"/><stop stop-opacity="1" stop-color="rgb(41.766357%, 78.300476%, 100%)" offset="0.304688"/><stop stop-opacity="1" stop-color="rgb(42.079163%, 78.118896%, 100%)" offset="0.308594"/><stop stop-opacity="1" stop-color="rgb(42.393494%, 77.937317%, 100%)" offset="0.3125"/><stop stop-opacity="1" stop-color="rgb(42.706299%, 77.754211%, 100%)" offset="0.316406"/><stop stop-opacity="1" stop-color="rgb(43.02063%, 77.572632%, 100%)" offset="0.320313"/><stop stop-opacity="1" stop-color="rgb(43.333435%, 77.389526%, 100%)" offset="0.324219"/><stop stop-opacity="1" stop-color="rgb(43.647766%, 77.207947%, 100%)" offset="0.328125"/><stop stop-opacity="1" stop-color="rgb(43.960571%, 77.026367%, 100%)" offset="0.332031"/><stop stop-opacity="1" stop-color="rgb(44.274902%, 76.844788%, 100%)" offset="0.335938"/><stop stop-opacity="1" stop-color="rgb(44.587708%, 76.661682%, 100%)" offset="0.339844"/><stop stop-opacity="1" stop-color="rgb(44.902039%, 76.480103%, 100%)" offset="0.34375"/><stop stop-opacity="1" stop-color="rgb(45.214844%, 76.298523%, 100%)" offset="0.347656"/><stop stop-opacity="1" stop-color="rgb(45.529175%, 76.116943%, 100%)" offset="0.351562"/><stop stop-opacity="1" stop-color="rgb(45.84198%, 75.933838%, 100%)" offset="0.355469"/><stop stop-opacity="1" stop-color="rgb(46.156311%, 75.752258%, 100%)" offset="0.359375"/><stop stop-opacity="1" stop-color="rgb(46.470642%, 75.569153%, 100%)" offset="0.363281"/><stop stop-opacity="1" stop-color="rgb(46.784973%, 75.387573%, 100%)" offset="0.367188"/><stop stop-opacity="1" stop-color="rgb(47.097778%, 75.205994%, 100%)" offset="0.371094"/><stop stop-opacity="1" stop-color="rgb(47.412109%, 75.024414%, 100%)" offset="0.375"/><stop stop-opacity="1" stop-color="rgb(47.724915%, 74.841309%, 100%)" offset="0.378906"/><stop stop-opacity="1" stop-color="rgb(48.039246%, 74.659729%, 100%)" offset="0.382812"/><stop stop-opacity="1" stop-color="rgb(48.352051%, 74.478149%, 100%)" offset="0.386719"/><stop stop-opacity="1" stop-color="rgb(48.666382%, 74.29657%, 100%)" offset="0.390625"/><stop stop-opacity="1" stop-color="rgb(48.979187%, 74.113464%, 100%)" offset="0.394531"/><stop stop-opacity="1" stop-color="rgb(49.293518%, 73.931885%, 100%)" offset="0.398438"/><stop stop-opacity="1" stop-color="rgb(49.606323%, 73.750305%, 100%)" offset="0.402344"/><stop stop-opacity="1" stop-color="rgb(49.920654%, 73.568726%, 100%)" offset="0.40625"/><stop stop-opacity="1" stop-color="rgb(50.233459%, 73.38562%, 100%)" offset="0.410156"/><stop stop-opacity="1" stop-color="rgb(50.547791%, 73.204041%, 100%)" offset="0.414062"/><stop stop-opacity="1" stop-color="rgb(50.862122%, 73.020935%, 100%)" offset="0.417969"/><stop stop-opacity="1" stop-color="rgb(51.176453%, 72.839355%, 100%)" offset="0.421875"/><stop stop-opacity="1" stop-color="rgb(51.489258%, 72.657776%, 100%)" offset="0.425781"/><stop stop-opacity="1" stop-color="rgb(51.803589%, 72.476196%, 100%)" offset="0.429688"/><stop stop-opacity="1" stop-color="rgb(52.116394%, 72.293091%, 100%)" offset="0.433594"/><stop stop-opacity="1" stop-color="rgb(52.430725%, 72.111511%, 100%)" offset="0.4375"/><stop stop-opacity="1" stop-color="rgb(52.74353%, 71.929932%, 100%)" offset="0.441406"/><stop stop-opacity="1" stop-color="rgb(53.057861%, 71.748352%, 100%)" offset="0.445312"/><stop stop-opacity="1" stop-color="rgb(53.370667%, 71.565247%, 100%)" offset="0.449219"/><stop stop-opacity="1" stop-color="rgb(53.684998%, 71.383667%, 100%)" offset="0.453125"/><stop stop-opacity="1" stop-color="rgb(53.997803%, 71.200562%, 100%)" offset="0.457031"/><stop stop-opacity="1" stop-color="rgb(54.312134%, 71.018982%, 100%)" offset="0.460938"/><stop stop-opacity="1" stop-color="rgb(54.624939%, 70.837402%, 100%)" offset="0.464844"/><stop stop-opacity="1" stop-color="rgb(54.93927%, 70.655823%, 100%)" offset="0.46875"/><stop stop-opacity="1" stop-color="rgb(55.253601%, 70.472717%, 100%)" offset="0.472656"/><stop stop-opacity="1" stop-color="rgb(55.567932%, 70.291138%, 100%)" offset="0.476562"/><stop stop-opacity="1" stop-color="rgb(55.880737%, 70.109558%, 100%)" offset="0.480469"/><stop stop-opacity="1" stop-color="rgb(56.195068%, 69.927979%, 100%)" offset="0.484375"/><stop stop-opacity="1" stop-color="rgb(56.507874%, 69.744873%, 100%)" offset="0.488281"/><stop stop-opacity="1" stop-color="rgb(56.822205%, 69.563293%, 100%)" offset="0.492188"/><stop stop-opacity="1" stop-color="rgb(57.13501%, 69.380188%, 100%)" offset="0.496094"/><stop stop-opacity="1" stop-color="rgb(57.449341%, 69.198608%, 100%)" offset="0.5"/><stop stop-opacity="1" stop-color="rgb(57.762146%, 69.017029%, 100%)" offset="0.503906"/><stop stop-opacity="1" stop-color="rgb(58.076477%, 68.835449%, 100%)" offset="0.507813"/><stop stop-opacity="1" stop-color="rgb(58.389282%, 68.652344%, 100%)" offset="0.511719"/><stop stop-opacity="1" stop-color="rgb(58.703613%, 68.470764%, 100%)" offset="0.515625"/><stop stop-opacity="1" stop-color="rgb(59.016418%, 68.289185%, 100%)" offset="0.519531"/><stop stop-opacity="1" stop-color="rgb(59.33075%, 68.107605%, 100%)" offset="0.523438"/><stop stop-opacity="1" stop-color="rgb(59.643555%, 67.9245%, 100%)" offset="0.527344"/><stop stop-opacity="1" stop-color="rgb(59.957886%, 67.74292%, 100%)" offset="0.53125"/><stop stop-opacity="1" stop-color="rgb(60.272217%, 67.559814%, 100%)" offset="0.535156"/><stop stop-opacity="1" stop-color="rgb(60.586548%, 67.378235%, 100%)" offset="0.539063"/><stop stop-opacity="1" stop-color="rgb(60.899353%, 67.196655%, 100%)" offset="0.542969"/><stop stop-opacity="1" stop-color="rgb(61.213684%, 67.015076%, 100%)" offset="0.546875"/><stop stop-opacity="1" stop-color="rgb(61.526489%, 66.83197%, 100%)" offset="0.550781"/><stop stop-opacity="1" stop-color="rgb(61.84082%, 66.650391%, 100%)" offset="0.554688"/><stop stop-opacity="1" stop-color="rgb(62.153625%, 66.468811%, 100%)" offset="0.558594"/><stop stop-opacity="1" stop-color="rgb(62.467957%, 66.287231%, 100%)" offset="0.5625"/><stop stop-opacity="1" stop-color="rgb(62.780762%, 66.104126%, 100%)" offset="0.566406"/><stop stop-opacity="1" stop-color="rgb(63.095093%, 65.922546%, 100%)" offset="0.570312"/><stop stop-opacity="1" stop-color="rgb(63.407898%, 65.739441%, 100%)" offset="0.574219"/><stop stop-opacity="1" stop-color="rgb(63.722229%, 65.557861%, 100%)" offset="0.578125"/><stop stop-opacity="1" stop-color="rgb(64.035034%, 65.376282%, 100%)" offset="0.582031"/><stop stop-opacity="1" stop-color="rgb(64.349365%, 65.194702%, 100%)" offset="0.585938"/><stop stop-opacity="1" stop-color="rgb(64.663696%, 65.011597%, 100%)" offset="0.589844"/><stop stop-opacity="1" stop-color="rgb(64.978027%, 64.830017%, 100%)" offset="0.59375"/><stop stop-opacity="1" stop-color="rgb(65.290833%, 64.648438%, 100%)" offset="0.597656"/><stop stop-opacity="1" stop-color="rgb(65.605164%, 64.466858%, 100%)" offset="0.601562"/><stop stop-opacity="1" stop-color="rgb(65.917969%, 64.283752%, 100%)" offset="0.605469"/><stop stop-opacity="1" stop-color="rgb(66.2323%, 64.102173%, 100%)" offset="0.609375"/><stop stop-opacity="1" stop-color="rgb(66.545105%, 63.920593%, 100%)" offset="0.613281"/><stop stop-opacity="1" stop-color="rgb(66.859436%, 63.739014%, 100%)" offset="0.617188"/><stop stop-opacity="1" stop-color="rgb(67.172241%, 63.555908%, 100%)" offset="0.621094"/><stop stop-opacity="1" stop-color="rgb(67.486572%, 63.374329%, 100%)" offset="0.625"/><stop stop-opacity="1" stop-color="rgb(67.799377%, 63.191223%, 100%)" offset="0.628906"/><stop stop-opacity="1" stop-color="rgb(68.113708%, 63.009644%, 100%)" offset="0.632812"/><stop stop-opacity="1" stop-color="rgb(68.426514%, 62.828064%, 100%)" offset="0.636719"/><stop stop-opacity="1" stop-color="rgb(68.740845%, 62.646484%, 100%)" offset="0.640625"/><stop stop-opacity="1" stop-color="rgb(69.055176%, 62.463379%, 100%)" offset="0.644531"/><stop stop-opacity="1" stop-color="rgb(69.369507%, 62.281799%, 100%)" offset="0.648438"/><stop stop-opacity="1" stop-color="rgb(69.682312%, 62.10022%, 100%)" offset="0.652344"/><stop stop-opacity="1" stop-color="rgb(69.996643%, 61.91864%, 100%)" offset="0.65625"/><stop stop-opacity="1" stop-color="rgb(70.309448%, 61.735535%, 100%)" offset="0.660156"/><stop stop-opacity="1" stop-color="rgb(70.623779%, 61.553955%, 100%)" offset="0.664063"/><stop stop-opacity="1" stop-color="rgb(70.936584%, 61.37085%, 100%)" offset="0.667969"/><stop stop-opacity="1" stop-color="rgb(71.250916%, 61.18927%, 100%)" offset="0.671875"/><stop stop-opacity="1" stop-color="rgb(71.563721%, 61.00769%, 100%)" offset="0.675781"/><stop stop-opacity="1" stop-color="rgb(71.878052%, 60.826111%, 100%)" offset="0.679688"/><stop stop-opacity="1" stop-color="rgb(72.190857%, 60.643005%, 100%)" offset="0.683594"/><stop stop-opacity="1" stop-color="rgb(72.505188%, 60.461426%, 100%)" offset="0.6875"/><stop stop-opacity="1" stop-color="rgb(72.817993%, 60.279846%, 100%)" offset="0.691406"/><stop stop-opacity="1" stop-color="rgb(73.132324%, 60.098267%, 100%)" offset="0.695312"/><stop stop-opacity="1" stop-color="rgb(73.445129%, 59.915161%, 100%)" offset="0.699219"/><stop stop-opacity="1" stop-color="rgb(73.75946%, 59.733582%, 100%)" offset="0.703125"/><stop stop-opacity="1" stop-color="rgb(74.073792%, 59.550476%, 100%)" offset="0.707031"/><stop stop-opacity="1" stop-color="rgb(74.388123%, 59.368896%, 100%)" offset="0.710938"/><stop stop-opacity="1" stop-color="rgb(74.700928%, 59.187317%, 100%)" offset="0.714844"/><stop stop-opacity="1" stop-color="rgb(75.015259%, 59.005737%, 100%)" offset="0.71875"/><stop stop-opacity="1" stop-color="rgb(75.328064%, 58.822632%, 100%)" offset="0.722656"/><stop stop-opacity="1" stop-color="rgb(75.642395%, 58.641052%, 100%)" offset="0.726562"/><stop stop-opacity="1" stop-color="rgb(75.9552%, 58.459473%, 100%)" offset="0.730469"/><stop stop-opacity="1" stop-color="rgb(76.269531%, 58.277893%, 100%)" offset="0.734375"/><stop stop-opacity="1" stop-color="rgb(76.582336%, 58.094788%, 100%)" offset="0.738281"/><stop stop-opacity="1" stop-color="rgb(76.896667%, 57.913208%, 100%)" offset="0.742188"/><stop stop-opacity="1" stop-color="rgb(77.209473%, 57.730103%, 100%)" offset="0.746094"/><stop stop-opacity="1" stop-color="rgb(77.523804%, 57.548523%, 100%)" offset="0.75"/><stop stop-opacity="1" stop-color="rgb(77.836609%, 57.366943%, 100%)" offset="0.753906"/><stop stop-opacity="1" stop-color="rgb(78.15094%, 57.185364%, 100%)" offset="0.757812"/><stop stop-opacity="1" stop-color="rgb(78.465271%, 57.002258%, 100%)" offset="0.761719"/><stop stop-opacity="1" stop-color="rgb(78.779602%, 56.820679%, 100%)" offset="0.765625"/><stop stop-opacity="1" stop-color="rgb(79.092407%, 56.639099%, 100%)" offset="0.769531"/><stop stop-opacity="1" stop-color="rgb(79.406738%, 56.45752%, 100%)" offset="0.773438"/><stop stop-opacity="1" stop-color="rgb(79.719543%, 56.274414%, 100%)" offset="0.777344"/><stop stop-opacity="1" stop-color="rgb(80.033875%, 56.092834%, 100%)" offset="0.78125"/><stop stop-opacity="1" stop-color="rgb(80.34668%, 55.911255%, 100%)" offset="0.785156"/><stop stop-opacity="1" stop-color="rgb(80.661011%, 55.729675%, 100%)" offset="0.789063"/><stop stop-opacity="1" stop-color="rgb(80.973816%, 55.54657%, 100%)" offset="0.792969"/><stop stop-opacity="1" stop-color="rgb(81.288147%, 55.36499%, 100%)" offset="0.796875"/><stop stop-opacity="1" stop-color="rgb(81.600952%, 55.181885%, 100%)" offset="0.800781"/><stop stop-opacity="1" stop-color="rgb(81.915283%, 55.000305%, 100%)" offset="0.804688"/><stop stop-opacity="1" stop-color="rgb(82.228088%, 54.818726%, 100%)" offset="0.808594"/><stop stop-opacity="1" stop-color="rgb(82.542419%, 54.637146%, 100%)" offset="0.8125"/><stop stop-opacity="1" stop-color="rgb(82.85675%, 54.454041%, 100%)" offset="0.816406"/><stop stop-opacity="1" stop-color="rgb(83.171082%, 54.272461%, 100%)" offset="0.820312"/><stop stop-opacity="1" stop-color="rgb(83.483887%, 54.090881%, 100%)" offset="0.824219"/><stop stop-opacity="1" stop-color="rgb(83.798218%, 53.909302%, 100%)" offset="0.828125"/><stop stop-opacity="1" stop-color="rgb(84.111023%, 53.726196%, 100%)" offset="0.832031"/><stop stop-opacity="1" stop-color="rgb(84.425354%, 53.544617%, 100%)" offset="0.835938"/><stop stop-opacity="1" stop-color="rgb(84.738159%, 53.361511%, 100%)" offset="0.839844"/><stop stop-opacity="1" stop-color="rgb(85.05249%, 53.179932%, 100%)" offset="0.84375"/><stop stop-opacity="1" stop-color="rgb(85.365295%, 52.998352%, 100%)" offset="0.847656"/><stop stop-opacity="1" stop-color="rgb(85.679626%, 52.816772%, 100%)" offset="0.851562"/><stop stop-opacity="1" stop-color="rgb(85.992432%, 52.633667%, 100%)" offset="0.855469"/><stop stop-opacity="1" stop-color="rgb(86.306763%, 52.452087%, 100%)" offset="0.859375"/><stop stop-opacity="1" stop-color="rgb(86.619568%, 52.270508%, 100%)" offset="0.863281"/><stop stop-opacity="1" stop-color="rgb(86.933899%, 52.088928%, 100%)" offset="0.867188"/><stop stop-opacity="1" stop-color="rgb(87.246704%, 51.905823%, 100%)" offset="0.871094"/><stop stop-opacity="1" stop-color="rgb(87.561035%, 51.724243%, 100%)" offset="0.875"/><stop stop-opacity="1" stop-color="rgb(87.875366%, 51.541138%, 100%)" offset="0.878906"/><stop stop-opacity="1" stop-color="rgb(88.189697%, 51.359558%, 100%)" offset="0.882812"/><stop stop-opacity="1" stop-color="rgb(88.502502%, 51.177979%, 100%)" offset="0.886719"/><stop stop-opacity="1" stop-color="rgb(88.816833%, 50.996399%, 100%)" offset="0.890625"/><stop stop-opacity="1" stop-color="rgb(89.129639%, 50.813293%, 100%)" offset="0.894531"/><stop stop-opacity="1" stop-color="rgb(89.44397%, 50.631714%, 100%)" offset="0.898438"/><stop stop-opacity="1" stop-color="rgb(89.756775%, 50.450134%, 100%)" offset="0.902344"/><stop stop-opacity="1" stop-color="rgb(90.071106%, 50.268555%, 100%)" offset="0.90625"/><stop stop-opacity="1" stop-color="rgb(90.383911%, 50.085449%, 100%)" offset="0.910156"/><stop stop-opacity="1" stop-color="rgb(90.698242%, 49.90387%, 100%)" offset="0.914063"/><stop stop-opacity="1" stop-color="rgb(91.011047%, 49.720764%, 100%)" offset="0.917969"/><stop stop-opacity="1" stop-color="rgb(91.325378%, 49.539185%, 100%)" offset="0.921875"/><stop stop-opacity="1" stop-color="rgb(91.638184%, 49.357605%, 100%)" offset="0.925781"/><stop stop-opacity="1" stop-color="rgb(91.952515%, 49.176025%, 100%)" offset="0.929688"/><stop stop-opacity="1" stop-color="rgb(92.266846%, 48.99292%, 100%)" offset="0.933594"/><stop stop-opacity="1" stop-color="rgb(92.581177%, 48.81134%, 100%)" offset="0.9375"/><stop stop-opacity="1" stop-color="rgb(92.893982%, 48.629761%, 100%)" offset="0.941406"/><stop stop-opacity="1" stop-color="rgb(93.208313%, 48.448181%, 100%)" offset="0.945312"/><stop stop-opacity="1" stop-color="rgb(93.521118%, 48.265076%, 100%)" offset="0.949219"/><stop stop-opacity="1" stop-color="rgb(93.835449%, 48.083496%, 100%)" offset="0.953125"/><stop stop-opacity="1" stop-color="rgb(94.148254%, 47.900391%, 100%)" offset="0.957031"/><stop stop-opacity="1" stop-color="rgb(94.462585%, 47.718811%, 100%)" offset="0.960937"/><stop stop-opacity="1" stop-color="rgb(94.775391%, 47.537231%, 100%)" offset="0.964844"/><stop stop-opacity="1" stop-color="rgb(95.089722%, 47.355652%, 100%)" offset="0.96875"/><stop stop-opacity="1" stop-color="rgb(95.402527%, 47.172546%, 100%)" offset="0.972656"/><stop stop-opacity="1" stop-color="rgb(95.716858%, 46.990967%, 100%)" offset="0.976562"/><stop stop-opacity="1" stop-color="rgb(96.029663%, 46.809387%, 100%)" offset="0.980469"/><stop stop-opacity="1" stop-color="rgb(96.343994%, 46.627808%, 100%)" offset="0.984375"/><stop stop-opacity="1" stop-color="rgb(96.658325%, 46.444702%, 100%)" offset="0.988281"/><stop stop-opacity="1" stop-color="rgb(96.972656%, 46.263123%, 100%)" offset="0.992188"/><stop stop-opacity="1" stop-color="rgb(97.285461%, 46.081543%, 100%)" offset="0.996094"/><stop stop-opacity="1" stop-color="rgb(97.599792%, 45.899963%, 100%)" offset="1"/></linearGradient><clipPath id="id5"><path d="M 16 7 L 32 7 L 32 21 L 16 21 Z M 16 7 " clip-rule="nonzero"/></clipPath><clipPath id="id6"><path d="M 21.53125 3.773438 L 34.285156 15.390625 L 26.710938 23.707031 L 13.953125 12.09375 Z M 21.53125 3.773438 " clip-rule="nonzero"/></clipPath><clipPath id="id7"><path d="M 21.53125 3.773438 L 34.285156 15.390625 L 26.710938 23.707031 L 13.953125 12.09375 Z M 21.53125 3.773438 " clip-rule="nonzero"/></clipPath><clipPath id="id8"><path d="M 17 7 L 31 7 L 31 20 L 17 20 Z M 17 7 " clip-rule="nonzero"/></clipPath><clipPath id="id9"><path d="M 21.53125 3.773438 L 34.285156 15.390625 L 26.710938 23.707031 L 13.953125 12.09375 Z M 21.53125 3.773438 " clip-rule="nonzero"/></clipPath><clipPath id="id10"><path d="M 21.53125 3.773438 L 34.285156 15.390625 L 26.710938 23.707031 L 13.953125 12.09375 Z M 21.53125 3.773438 " clip-rule="nonzero"/></clipPath><clipPath id="id11"><path d="M 19 9 L 29 9 L 29 19 L 19 19 Z M 19 9 " clip-rule="nonzero"/></clipPath><clipPath id="id12"><path d="M 21.53125 3.773438 L 34.285156 15.390625 L 26.710938 23.707031 L 13.953125 12.09375 Z M 21.53125 3.773438 " clip-rule="nonzero"/></clipPath><clipPath id="id13"><path d="M 21.53125 3.773438 L 34.285156 15.390625 L 26.710938 23.707031 L 13.953125 12.09375 Z M 21.53125 3.773438 " clip-rule="nonzero"/></clipPath><clipPath id="id14"><path d="M 21 11 L 27 11 L 27 17 L 21 17 Z M 21 11 " clip-rule="nonzero"/></clipPath><clipPath id="id15"><path d="M 21.53125 3.773438 L 34.285156 15.390625 L 26.710938 23.707031 L 13.953125 12.09375 Z M 21.53125 3.773438 " clip-rule="nonzero"/></clipPath><clipPath id="id16"><path d="M 21.53125 3.773438 L 34.285156 15.390625 L 26.710938 23.707031 L 13.953125 12.09375 Z M 21.53125 3.773438 " clip-rule="nonzero"/></clipPath><clipPath id="id17"><path d="M 25 12 L 28 12 L 28 15 L 25 15 Z M 25 12 " clip-rule="nonzero"/></clipPath><clipPath id="id18"><path d="M 21.53125 3.773438 L 34.285156 15.390625 L 26.710938 23.707031 L 13.953125 12.09375 Z M 21.53125 3.773438 " clip-rule="nonzero"/></clipPath><clipPath id="id19"><path d="M 21.53125 3.773438 L 34.285156 15.390625 L 26.710938 23.707031 L 13.953125 12.09375 Z M 21.53125 3.773438 " clip-rule="nonzero"/></clipPath></defs><g clip-path="url(#id1)"><path fill="#9762ff" d="M 35.027344 14.195312 C 35.027344 14.910156 34.957031 15.617188 34.816406 16.316406 C 34.679688 17.015625 34.472656 17.695312 34.199219 18.355469 C 33.925781 19.015625 33.589844 19.640625 33.195312 20.234375 C 32.796875 20.828125 32.347656 21.378906 31.839844 21.882812 C 31.335938 22.390625 30.785156 22.839844 30.191406 23.238281 C 29.597656 23.632812 28.972656 23.96875 28.3125 24.242188 C 27.652344 24.515625 26.972656 24.722656 26.273438 24.859375 C 25.574219 25 24.867188 25.070312 24.152344 25.070312 C 23.4375 25.070312 22.730469 25 22.03125 24.859375 C 21.328125 24.722656 20.648438 24.515625 19.988281 24.242188 C 19.328125 23.96875 18.703125 23.632812 18.109375 23.238281 C 17.515625 22.839844 16.964844 22.390625 16.460938 21.882812 C 15.957031 21.378906 15.503906 20.828125 15.109375 20.234375 C 14.710938 19.640625 14.378906 19.015625 14.105469 18.355469 C 13.832031 17.695312 13.625 17.015625 13.484375 16.316406 C 13.347656 15.617188 13.277344 14.910156 13.277344 14.195312 C 13.277344 13.480469 13.347656 12.773438 13.484375 12.074219 C 13.625 11.371094 13.832031 10.691406 14.105469 10.03125 C 14.378906 9.371094 14.710938 8.746094 15.109375 8.152344 C 15.503906 7.558594 15.957031 7.007812 16.460938 6.503906 C 16.964844 6 17.515625 5.546875 18.109375 5.152344 C 18.703125 4.753906 19.328125 4.421875 19.988281 4.148438 C 20.648438 3.875 21.328125 3.667969 22.03125 3.527344 C 22.730469 3.390625 23.4375 3.320312 24.152344 3.320312 C 24.867188 3.320312 25.574219 3.390625 26.273438 3.527344 C 26.972656 3.667969 27.652344 3.875 28.3125 4.148438 C 28.972656 4.421875 29.597656 4.753906 30.191406 5.152344 C 30.785156 5.546875 31.335938 6 31.839844 6.503906 C 32.347656 7.007812 32.796875 7.558594 33.195312 8.152344 C 33.589844 8.746094 33.925781 9.371094 34.199219 10.03125 C 34.472656 10.691406 34.679688 11.371094 34.816406 12.074219 C 34.957031 12.773438 35.027344 13.480469 35.027344 14.195312 Z M 35.027344 14.195312 " fill-opacity="1" fill-rule="nonzero"/></g><g clip-path="url(#id2)"><g clip-path="url(#id3)"><path fill="url(#id4)" d="M 1.914062 1.914062 L 1.914062 35.585938 L 35.585938 35.585938 L 35.585938 1.914062 Z M 1.914062 1.914062 " fill-rule="nonzero"/></g></g><g clip-path="url(#id5)"><g clip-path="url(#id6)"><g clip-path="url(#id7)"><path fill="#a6a6a6" d="M 30.515625 19.566406 C 29.378906 20.816406 23.871094 21.125 20.347656 17.914062 C 16.824219 14.707031 16.289062 9.550781 17.753906 7.945312 C 18.894531 6.691406 24.398438 6.386719 27.921875 9.597656 C 31.445312 12.804688 31.65625 18.3125 30.515625 19.566406 Z M 30.515625 19.566406 " fill-opacity="1" fill-rule="nonzero"/></g></g></g><g clip-path="url(#id8)"><g clip-path="url(#id9)"><g clip-path="url(#id10)"><path fill="#f5f8fa" d="M 30.050781 19.144531 C 29.050781 20.242188 24.074219 20.386719 20.804688 17.410156 C 17.539062 14.433594 16.933594 9.777344 18.21875 8.367188 C 19.21875 7.265625 24.195312 7.125 27.460938 10.101562 C 30.730469 13.074219 31.054688 18.042969 30.050781 19.144531 Z M 30.050781 19.144531 " fill-opacity="1" fill-rule="nonzero"/></g></g></g><g clip-path="url(#id11)"><g clip-path="url(#id12)"><g clip-path="url(#id13)"><path fill="#9762ff" d="M 27.300781 16.636719 C 27.109375 16.847656 26.898438 17.039062 26.671875 17.207031 C 26.445312 17.375 26.203125 17.519531 25.945312 17.644531 C 25.691406 17.765625 25.425781 17.859375 25.148438 17.929688 C 24.875 18 24.597656 18.042969 24.316406 18.054688 C 24.035156 18.070312 23.753906 18.058594 23.472656 18.015625 C 23.195312 17.976562 22.921875 17.910156 22.65625 17.816406 C 22.394531 17.71875 22.140625 17.601562 21.898438 17.457031 C 21.65625 17.3125 21.433594 17.144531 21.226562 16.957031 C 21.019531 16.765625 20.832031 16.558594 20.664062 16.332031 C 20.5 16.105469 20.355469 15.867188 20.238281 15.609375 C 20.117188 15.355469 20.027344 15.089844 19.960938 14.816406 C 19.894531 14.542969 19.855469 14.265625 19.84375 13.984375 C 19.832031 13.699219 19.847656 13.421875 19.890625 13.140625 C 19.933594 12.859375 20.003906 12.589844 20.101562 12.320312 C 20.199219 12.054688 20.320312 11.800781 20.46875 11.558594 C 20.613281 11.316406 20.785156 11.089844 20.976562 10.878906 C 21.167969 10.667969 21.375 10.480469 21.605469 10.308594 C 21.832031 10.140625 22.074219 9.996094 22.332031 9.875 C 22.585938 9.753906 22.851562 9.65625 23.125 9.585938 C 23.402344 9.519531 23.679688 9.476562 23.960938 9.460938 C 24.242188 9.445312 24.523438 9.457031 24.800781 9.5 C 25.082031 9.539062 25.351562 9.605469 25.617188 9.703125 C 25.882812 9.796875 26.136719 9.914062 26.378906 10.058594 C 26.617188 10.203125 26.84375 10.371094 27.050781 10.558594 C 27.257812 10.75 27.445312 10.957031 27.609375 11.183594 C 27.777344 11.410156 27.921875 11.652344 28.039062 11.90625 C 28.15625 12.160156 28.25 12.425781 28.316406 12.699219 C 28.382812 12.972656 28.421875 13.25 28.433594 13.535156 C 28.445312 13.816406 28.429688 14.097656 28.386719 14.375 C 28.34375 14.65625 28.273438 14.929688 28.175781 15.195312 C 28.078125 15.460938 27.957031 15.714844 27.808594 15.957031 C 27.660156 16.203125 27.492188 16.429688 27.300781 16.636719 Z M 27.300781 16.636719 " fill-opacity="1" fill-rule="nonzero"/></g></g></g><g clip-path="url(#id14)"><g clip-path="url(#id15)"><g clip-path="url(#id16)"><path fill="#292f33" d="M 25.898438 15.359375 C 25.683594 15.597656 25.433594 15.785156 25.144531 15.921875 C 24.855469 16.058594 24.554688 16.132812 24.238281 16.152344 C 23.917969 16.167969 23.613281 16.121094 23.3125 16.015625 C 23.015625 15.910156 22.75 15.75 22.515625 15.539062 C 22.285156 15.324219 22.101562 15.078125 21.96875 14.789062 C 21.832031 14.503906 21.761719 14.199219 21.746094 13.882812 C 21.734375 13.566406 21.78125 13.257812 21.890625 12.957031 C 22 12.660156 22.164062 12.390625 22.378906 12.15625 C 22.59375 11.917969 22.84375 11.734375 23.132812 11.597656 C 23.421875 11.460938 23.722656 11.382812 24.039062 11.367188 C 24.355469 11.347656 24.664062 11.394531 24.960938 11.5 C 25.261719 11.605469 25.527344 11.765625 25.757812 11.976562 C 25.992188 12.191406 26.175781 12.441406 26.308594 12.726562 C 26.441406 13.015625 26.515625 13.316406 26.527344 13.632812 C 26.542969 13.949219 26.492188 14.257812 26.386719 14.558594 C 26.277344 14.859375 26.113281 15.125 25.898438 15.359375 Z M 25.898438 15.359375 " fill-opacity="1" fill-rule="nonzero"/></g></g></g><g clip-path="url(#id17)"><g clip-path="url(#id18)"><g clip-path="url(#id19)"><path fill="#f5f8fa" d="M 27.039062 14.328125 C 26.949219 14.425781 26.84375 14.507812 26.71875 14.5625 C 26.597656 14.621094 26.46875 14.65625 26.335938 14.660156 C 26.199219 14.667969 26.070312 14.648438 25.941406 14.605469 C 25.816406 14.558594 25.703125 14.492188 25.605469 14.402344 C 25.503906 14.3125 25.425781 14.207031 25.371094 14.082031 C 25.3125 13.960938 25.28125 13.832031 25.277344 13.699219 C 25.273438 13.5625 25.292969 13.433594 25.339844 13.304688 C 25.382812 13.179688 25.453125 13.066406 25.546875 12.964844 C 25.636719 12.863281 25.742188 12.785156 25.867188 12.726562 C 25.988281 12.667969 26.117188 12.636719 26.25 12.628906 C 26.386719 12.621094 26.515625 12.640625 26.644531 12.6875 C 26.769531 12.730469 26.882812 12.800781 26.980469 12.890625 C 27.082031 12.980469 27.160156 13.085938 27.214844 13.207031 C 27.273438 13.328125 27.304688 13.457031 27.308594 13.59375 C 27.3125 13.726562 27.292969 13.859375 27.246094 13.984375 C 27.199219 14.113281 27.132812 14.226562 27.039062 14.328125 Z M 27.039062 14.328125 " fill-opacity="1" fill-rule="nonzero"/></g></g></g></svg>